<?xml version="1.0" encoding="UTF-8"?>
<svg width="429px" height="412px" viewBox="0 0 429 412" version="1.1" xmlns="http://www.w3.org/2000/svg" xmlns:xlink="http://www.w3.org/1999/xlink">
    <!-- Generator: Sketch 64 (93537) - https://sketch.com -->
    <title>Logo</title>
    <desc>Created with Sketch.</desc>
    <g id="Page-1" stroke="none" stroke-width="1" fill="none" fill-rule="evenodd">
        <g id="1-01" transform="translate(-285.000000, -227.000000)" fill="#478E6E">
            <g id="Logo" transform="translate(284.955000, 227.714000)">
                <path d="M378.154,218.256 L361.566,216.025 C361.061,215.957 360.644,215.599 360.501,215.11 C360.358,214.622 360.516,214.095 360.903,213.766 L386.338,192.206 L386.336,192.209 C386.439,192.121 386.558,192.047 386.685,191.992 L386.669,191.995 L405.636,183.341 L384.308,187.419 L359.424,208.509 L359.201,208.66 C359.041,208.75 358.824,208.82 358.628,208.84 L358.657,208.839 L309.065,214.281 L308.919,214.288 C308.467,214.288 308.034,214.071 307.765,213.706 C307.492,213.339 307.409,212.86 307.541,212.423 L307.576,212.319 L314.933,193.849 C314.998,193.652 315.163,193.398 315.313,193.254 L315.521,193.089 L361.384,163.934 L307.649,189.319 L294.511,215.287 C294.316,215.671 293.943,215.932 293.517,215.984 L293.504,215.986 L269.905,229.311 L268.94,229.848 C268.743,229.956 268.528,230.01 268.314,230.01 C268.062,230.01 267.812,229.936 267.595,229.79 C267.193,229.52 266.977,229.047 267.035,228.567 L271.543,191.412 L271.575,191.241 L271.645,191.026 L288.483,150.899 L288.473,150.928 C288.547,150.747 288.687,150.538 288.814,150.411 L289.027,150.239 L311.608,135.719 L311.59,135.734 C311.817,135.584 312.104,135.487 312.357,135.483 L323.234,135.292 L312.46,131.317 L283.437,147.947 C283.231,148.077 282.91,148.17 282.665,148.17 C282.211,148.17 281.777,147.952 281.508,147.586 C281.238,147.222 281.157,146.743 281.278,146.357 L288.608,118.626 L288.7,118.381 L288.783,118.23 L288.776,118.238 L297.237,104.459 C295.562,106.274 293.839,108.14 292.25,109.857 C288.451,113.964 286.733,115.822 285.853,116.661 L274.744,151.319 L274.654,151.533 L262.259,181.1 C262.024,181.607 261.51,181.933 260.95,181.933 C260.198,181.933 259.568,181.349 259.522,180.654 L255.336,142.534 L255.327,142.393 L255.331,142.256 L256.673,123.947 C256.684,123.801 256.719,123.658 256.777,123.525 L263.44,104.661 L253.774,121.978 L251.221,136.817 C251.123,137.383 250.662,137.817 250.09,137.878 L248.501,138.05 L248.363,138.058 C247.986,138.058 247.626,137.893 247.38,137.603 L225.902,112.245 C225.783,112.127 225.687,111.98 225.617,111.822 L225.62,111.837 L220.232,100.027 L224.996,116.011 C225.036,116.13 225.06,116.253 225.067,116.377 L242.169,139.141 L242.138,139.104 C242.244,139.243 242.345,139.423 242.396,139.564 C242.43,139.659 242.453,139.759 242.463,139.86 L245.823,170.483 C245.863,170.888 245.73,171.293 245.455,171.595 C245.184,171.895 244.794,172.068 244.391,172.068 C244.241,172.068 244.055,172.034 243.901,171.98 L243.915,171.985 L209.97,160.18 L209.839,160.126 L209.552,159.939 L183.462,142.222 L209.134,163.478 L230.749,172.16 L230.996,172.292 C231.127,172.382 231.315,172.569 231.404,172.7 L231.467,172.801 L249.448,204.922 C249.586,205.171 249.643,205.511 249.604,205.81 L249.61,205.782 L244.994,243.827 L244.994,243.818 L244.933,244.093 L244.902,244.18 L236.899,264.277 C236.674,264.819 236.151,265.169 235.566,265.169 C235.004,265.169 234.49,264.838 234.245,264.298 L217.018,223.706 L195.3,209.436 C195.064,209.427 194.832,209.354 194.629,209.219 L176.063,196.791 L175.91,196.671 C175.795,196.569 175.675,196.426 175.603,196.296 L158.826,166.307 L123.96,152.902 C123.743,152.832 123.709,152.822 109.507,141.51 L122.404,157.147 L143.767,165.733 C144.058,165.835 144.314,166.031 144.487,166.283 L144.549,166.385 L157.399,189.363 C157.665,189.809 157.671,190.363 157.417,190.81 C157.163,191.257 156.683,191.536 156.139,191.536 L141.56,191.246 L104.196,194.567 L104.082,194.573 C103.924,194.573 103.731,194.536 103.571,194.477 L103.588,194.485 L65.585,180.706 L97.094,197.788 C97.501,197.975 97.804,198.345 97.901,198.792 C98.002,199.251 97.869,199.727 97.553,200.067 L78.65,222.238 L78.684,222.147 C78.245,222.59 77.106,223.288 74.148,225.101 C71.625,226.646 68.251,228.704 64.852,230.776 L64.622,230.916 L81.276,224.101 L97.983,207.984 L98.167,207.836 C98.259,207.775 98.454,207.683 98.56,207.648 C98.656,207.615 98.758,207.594 98.858,207.585 L148.967,203.142 L149.081,203.137 C149.215,203.137 149.446,203.18 149.574,203.22 C149.687,203.257 149.795,203.309 149.895,203.376 L178.247,222.371 C178.668,222.652 178.905,223.12 178.886,223.623 C178.866,224.129 178.59,224.577 178.15,224.823 L154.981,237.794 C154.883,237.841 154.763,237.878 154.643,237.901 L120.002,246.154 C119.19,246.666 117.699,247.467 114.962,248.936 C111.904,250.578 107.852,252.746 103.671,254.98 L122.776,247.388 L123.048,247.322 L123.039,247.322 L149.74,243.601 L149.869,243.596 C150.351,243.596 150.8,243.833 151.068,244.23 C151.336,244.624 151.388,245.125 151.229,245.519 L142.876,269.063 C143.465,273.501 143.409,273.582 143.088,274.047 L126.772,297.6 L146.19,274.155 L154.843,252.619 C154.909,252.416 155.089,252.159 155.244,252.012 L155.503,251.821 L191.155,231.869 C191.351,231.76 191.568,231.705 191.784,231.705 C192.032,231.705 192.281,231.778 192.497,231.921 L193.644,232.682 C193.86,232.826 194.028,233.032 194.125,233.272 L219.292,295.497 C219.343,295.619 219.373,295.749 219.382,295.881 C219.394,295.993 219.39,296.112 219.373,296.23 L219.376,296.22 L207.71,390.196 L152.268,390.196 C150.605,390.196 149.253,391.549 149.253,393.212 C149.253,394.876 150.605,396.227 152.268,396.227 L285.367,396.227 C287.041,396.227 288.383,394.876 288.383,393.212 C288.383,391.549 287.041,390.196 285.367,390.196 L262.714,390.196 L254.582,294.844 L254.577,294.724 L254.601,294.475 C254.615,294.376 254.642,294.277 254.679,294.183 L271.936,250.837 L272.05,250.616 C272.178,250.417 272.407,250.208 272.637,250.087 L272.594,250.106 L316.777,226.119 C316.89,226.058 317.011,226.015 317.136,225.989 L317.32,225.96 L317.305,225.961 L355.973,221.711 L356.155,221.703 L356.373,221.722 L373.027,224.588 L373.238,224.631 L399.743,232.399 L378.154,218.256" id="Fill-12"></path>
                <path d="M318.41,390.194 L299.341,390.194 C297.675,390.194 296.324,391.545 296.324,393.211 C296.324,394.876 297.675,396.225 299.341,396.225 L318.41,396.225 C320.076,396.225 321.426,394.876 321.426,393.211 C321.426,391.545 320.076,390.194 318.41,390.194" id="Fill-13"></path>
                <path d="M342.108,404.876 L128.57,404.876 C126.905,404.876 125.555,406.225 125.555,407.891 C125.555,409.557 126.905,410.907 128.57,410.907 L342.108,410.907 C343.774,410.907 345.124,409.557 345.124,407.891 C345.124,406.225 343.774,404.876 342.108,404.876" id="Fill-14"></path>
                <path d="M294.324,284.767 C297.649,286.282 301.348,286.975 305.017,286.777 L306.328,286.706 L306.385,285.387 C306.653,278.975 304.188,272.709 299.628,268.205 C295.077,263.723 288.713,261.32 282.351,261.663 L281.035,261.733 L280.98,263.053 C280.718,269.466 283.179,275.734 287.751,280.237 C289.673,282.14 291.881,283.658 294.324,284.767" id="Fill-15"></path>
                <path d="M393.506,243.185 C389.524,240.653 384.631,239.913 380.075,241.156 L379.14,241.409 L379.301,242.363 C379.822,245.361 381.136,248.161 383.11,250.458 C384.177,251.703 385.432,252.782 386.828,253.672 C390.812,256.206 395.703,256.944 400.255,255.702 L401.191,255.448 L401.024,254.495 C400.233,249.866 397.479,245.712 393.506,243.185" id="Fill-16"></path>
                <path d="M428.361,192.532 C425.342,188.934 420.868,186.738 416.164,186.56 C411.448,186.384 406.851,188.215 403.544,191.586 L402.864,192.277 L403.485,193.019 C405.448,195.344 407.995,197.099 410.859,198.086 C412.407,198.622 414.036,198.92 415.69,198.984 C420.408,199.162 425.003,197.33 428.307,193.961 L428.986,193.27 L428.361,192.532" id="Fill-17"></path>
                <path d="M402.6,177.69 L402.638,178.658 L403.605,178.714 C406.643,178.875 409.665,178.221 412.346,176.809 C413.797,176.047 415.129,175.065 416.309,173.903 C419.668,170.586 421.48,165.983 421.285,161.268 L421.247,160.3 L420.281,160.25 C415.592,159.987 410.928,161.744 407.578,165.051 C404.221,168.367 402.406,172.972 402.6,177.69" id="Fill-18"></path>
                <path d="M387.149,181.604 L387.822,180.994 C389.928,179.07 391.477,176.619 392.296,173.9 C392.74,172.429 392.96,170.893 392.959003,169.341 C392.951,164.915 391.066,160.678 387.786,157.708 L387.114,157.097 L386.446,157.709 C383.188,160.671 381.295,164.943 381.302975,169.356 C381.312,173.78 383.197,178.02 386.478,180.993 L387.149,181.604" id="Fill-19"></path>
                <path d="M368.766,194.856 L369.455,194.394 C371.613,192.93 373.339,190.917 374.439,188.565 C375.035,187.293 375.437,185.932 375.641,184.528 C376.217,180.522 375.07,176.44 372.495,173.321 L371.968,172.679 L371.282,173.145 C367.943,175.394 365.668,179.009 365.093,183.004 C364.517,187.007 365.663,191.092 368.238,194.214 L368.766,194.856" id="Fill-20"></path>
                <path d="M356.385,187.451 L355.876,187 L355.382,187.465 C352.972,189.709 351.596,192.922 351.643,196.223 C351.69,199.532 353.139,202.685 355.62,204.879 L356.128,205.33 L356.626,204.868 C358.183,203.409 359.318,201.562 359.906,199.52 C360.226,198.416 360.376,197.265 360.36,196.104 C360.314,192.794 358.864,189.642 356.385,187.451" id="Fill-21"></path>
                <path d="M320.95,199.16 C318.13,200.891 316.16,203.749 315.544,207.002 L315.416,207.67 L316.067,207.862 C318.117,208.453 320.285,208.486 322.341,207.948 C323.452,207.658 324.519,207.198 325.509,206.592 C328.33,204.859 330.298,202.002 330.913,198.751 L331.041,198.083 L330.389,197.896 C327.228,196.972 323.763,197.432 320.95,199.16" id="Fill-22"></path>
                <path d="M343.563,191.387 L342.946,191.552 C339.951,192.342 337.383,194.393 335.955,197.15 C334.524,199.913 334.323,203.171 335.405,206.092 L335.627,206.691 L336.244,206.53 C338.183,206.012 339.945,204.986 341.34,203.555 C342.095,202.782 342.731,201.894 343.233,200.925 C344.666,198.161 344.865,194.904 343.783,191.986 L343.563,191.387" id="Fill-23"></path>
                <path d="M348.396,150.89 C344.581,151.895 341.311,154.508 339.491,158.019 C337.669,161.538 337.414,165.687 338.792,169.407 L339.073,170.17 L339.859,169.964 C342.329,169.305 344.573,167.998 346.35,166.176 C347.311,165.191 348.12,164.061 348.761,162.827 C350.585,159.306 350.839,155.159 349.461,151.443 L349.18,150.679 L348.396,150.89" id="Fill-24"></path>
                <path d="M320.563,156.505 L320.88,155.842 L320.25,155.467 C317.198,153.63 313.448,153.156 310.03,154.187 C306.605,155.222 303.758,157.667 302.216,160.9 L301.899,161.562 L302.526,161.942 C304.507,163.126 306.766,163.758 309.064,163.761036 C310.307,163.764 311.548,163.577 312.75,163.215 C316.178,162.181 319.023,159.736 320.563,156.505" id="Fill-25"></path>
                <path d="M351.173,138.544 L350.538,138.453 C347.457,137.995 344.271,138.872 341.858,140.853 C339.441,142.839 337.964,145.77 337.806,148.897 L337.773,149.539 L338.407,149.634 C340.403,149.925 342.439,149.676 344.294,148.906 C345.299,148.491 346.238,147.923 347.087,147.227 C349.507,145.241 350.982,142.31 351.139,139.186 L351.173,138.544" id="Fill-26"></path>
                <path d="M371.565,137.849 L371.826,137.263 L371.268,136.949 C368.557,135.415 365.269,135.089 362.305,136.072 C359.335,137.056 356.904,139.261 355.633,142.122 L355.371,142.709 L355.929,143.027 C357.688,144.015 359.677,144.514 361.686,144.462 C362.772,144.435 363.853,144.243 364.895,143.898 C367.866,142.913 370.295,140.709 371.565,137.849" id="Fill-27"></path>
                <path d="M360.115,131.069 C362.13,130.956 364.075,130.307 365.74,129.183 C366.642,128.577 367.449,127.833 368.143,126.983 C370.119,124.554 370.982,121.39 370.514,118.296 L370.419,117.66 L369.778,117.697 C366.668,117.861 363.721,119.355 361.751,121.777 C359.776,124.204 358.912,127.37 359.38,130.466 L359.475,131.102 L360.115,131.069" id="Fill-28"></path>
                <path d="M320.864,178.391 L321.841,178.136 C324.906,177.317 327.692,175.695 329.898,173.432 C331.092,172.209 332.097,170.806 332.893,169.274 C335.157,164.902 335.472,159.753 333.762,155.139 L333.412,154.191 L332.439,154.452 C327.702,155.701 323.642,158.945 321.384,163.304 C319.12,167.674 318.804,172.825 320.515,177.443 L320.864,178.391" id="Fill-29"></path>
                <path d="M314.617,165.891 C311.257,166.799 308.384,169.122 306.797,172.23 C305.207,175.347 305.004,179.009 306.24,182.285 L306.492,182.957 L307.186,182.771 C309.361,182.176 311.335,181.011 312.893,179.393 C313.736,178.519 314.444,177.517 315.004,176.425 C316.595,173.307 316.797,169.646 315.562,166.374 L315.309,165.702 L314.617,165.891" id="Fill-30"></path>
                <path d="M362.26,149.727 L362.066,149.201 L361.526,149.346 C358.9,150.038 356.649,151.837 355.397,154.254 C354.142,156.677 353.967,159.533 354.915,162.093 L355.108,162.619 L355.65,162.477 C357.35,162.023 358.895,161.124 360.117,159.869 C360.779,159.191 361.337,158.413 361.778,157.564 C363.034,155.14 363.208,152.285 362.26,149.727" id="Fill-31"></path>
                <path d="M368.199,150.034 C367.21,151.945 367.071,154.197 367.819,156.216 L367.973,156.631 L368.399,156.519 C369.74,156.161 370.958,155.452 371.923,154.462 C372.444,153.928 372.884,153.314 373.232,152.644 C374.222,150.732 374.359,148.481 373.611,146.464 L373.459,146.049 L373.033,146.163 C370.962,146.709 369.187,148.128 368.199,150.034" id="Fill-32"></path>
                <path d="M385.563,140.071 L385.41,139.657 L384.984,139.771 C382.913,140.317 381.138,141.735 380.15,143.641 C379.161,145.552 379.023,147.805 379.771,149.824 L379.924,150.238 L380.351,150.126 C381.691,149.768 382.909,149.059 383.873,148.07 C384.396,147.535 384.835,146.921 385.183,146.251 C386.173,144.34 386.311,142.089 385.563,140.071" id="Fill-33"></path>
                <path d="M362.486,173.412 L362.671,173.011 L362.29,172.787 C361.09,172.093 359.727,171.733 358.345,171.751 C357.598,171.76 356.853,171.883 356.134,172.111 C354.082,172.762 352.393,174.257 351.495,176.212 L351.31,176.613 L351.691,176.833 C353.542,177.911 355.801,178.164 357.846,177.515 C359.897,176.863 361.588,175.369 362.486,173.412" id="Fill-34"></path>
                <path d="M370.136,168.996 C372.187,168.344 373.877,166.849 374.775,164.893 L374.961,164.492 L374.579,164.269 C373.379,163.574 372.016,163.214 370.634,163.232 C369.887,163.241 369.143,163.364 368.423,163.592 C366.371,164.243 364.682,165.738 363.784,167.693 L363.599,168.095 L363.981,168.315 C365.831,169.393 368.09,169.645 370.136,168.996" id="Fill-35"></path>
                <path d="M348.514,181.559 L348.698,181.158 L348.317,180.935 C347.117,180.241 345.754,179.88 344.372,179.898 C343.625,179.907 342.881,180.03 342.161,180.258 C340.108,180.91 338.42,182.404 337.523,184.359 L337.337,184.761 L337.719,184.981 C339.569,186.059 341.827,186.312 343.874,185.662 C345.924,185.011 347.614,183.516 348.514,181.559" id="Fill-36"></path>
                <path d="M334.524,189.166 L334.66,188.872 L334.381,188.708 C333.499,188.198 332.497,187.933 331.483,187.947 C330.934,187.953 330.387,188.044 329.858,188.211 C328.352,188.689 327.11,189.787 326.451,191.224 L326.316,191.518 L326.596,191.68 C327.955,192.472 329.613,192.657 331.116,192.18 C332.623,191.702 333.864,190.604 334.524,189.166" id="Fill-37"></path>
                <path d="M388.76,201.343 C384.643,202.413 381.149,205.186 379.168,208.954 L378.76,209.727 L379.488,210.207 C381.786,211.705 384.44,212.56 387.169,212.669 C388.645,212.73 390.128,212.566 391.572,212.192 C395.692,211.122 399.185,208.349 401.162,204.583 L401.57,203.81 L400.84,203.335 C397.3,201.012 392.867,200.276 388.76,201.343" id="Fill-38"></path>
                <path d="M411.339,214.967 C406.643,215.43 402.335,217.866 399.515,221.653 L398.935,222.43 L399.65,223.081 C401.91,225.119 404.67,226.513 407.642,227.104 C409.248,227.426 410.902,227.501 412.55,227.341 C417.248,226.879 421.554,224.443 424.371,220.658 L424.95,219.881 L424.232,219.234 C420.754,216.078 416.024,214.506 411.339,214.967" id="Fill-39"></path>
                <path d="M355.672,259.553 L354.711,259.469 L354.53,260.414 C353.661,265.058 354.793,269.877 357.644,273.64 C357.974,274.078 358.331,274.503 358.699,274.902 C361.519,277.965 365.363,279.848 369.523,280.223 L370.483,280.309 L370.662,279.359 C371.534,274.714 370.403,269.897 367.553,266.139 C364.694,262.368 360.376,259.975 355.672,259.553" id="Fill-40"></path>
                <path d="M306.335,242.183 L305.484,241.721 L304.941,242.526 C302.307,246.444 301.436,251.32 302.566,255.903 C303.038,257.835 303.837,259.637 304.941,261.273 C306.441,263.503 308.492,265.361 310.868,266.65 L311.717,267.111 L312.26,266.306 C314.898,262.391 315.766,257.515 314.643,252.936 C313.518,248.375 310.454,244.418 306.335,242.183" id="Fill-41"></path>
                <path d="M308.67,321.007 L309.52,321.467 L310.063,320.662 C312.7,316.747 313.568,311.872 312.444,307.293 C311.319,302.731 308.256,298.774 304.138,296.54 L303.286,296.077 L302.743,296.882 C300.109,300.801 299.237,305.677 300.368,310.259 C300.84,312.191 301.639,313.993 302.743,315.629 C304.244,317.859 306.294,319.718 308.67,321.007" id="Fill-42"></path>
                <path d="M321.14,282.187 C321.725,284.582 322.714,286.815 324.083,288.843 C325.942,291.605 328.483,293.909 331.428,295.507 L332.481,296.077 L333.153,295.079 C336.422,290.228 337.498,284.185 336.106,278.511 C334.711,272.858 330.915,267.954 325.811,265.184 L324.756,264.612 L324.082,265.609 C320.818,270.465 319.737,276.508 321.14,282.187" id="Fill-43"></path>
                <path d="M274.53,282.609 L273.287,281.934 L272.494,283.11 C268.649,288.831 267.375,295.951 269.026,302.642 C269.716,305.465 270.882,308.096 272.494,310.484 C274.686,313.74 277.68,316.454 281.149,318.337 L282.389,319.01 L283.182,317.834 C287.033,312.117 288.301,304.998 286.661,298.311 C285.018,291.651 280.545,285.873 274.53,282.609" id="Fill-44"></path>
                <path d="M326.842,252.567 C330.552,256.692 335.646,259.125 341.198,259.418 L342.164,259.469 L342.306,258.515 C343.172,252.729 341.553,246.821 337.858,242.293 C334.087,237.682 328.738,234.993 322.854,234.682 L321.888,234.632 L321.748,235.587 C320.878,241.369 322.499,247.283 326.195,251.809 C326.403,252.069 326.624,252.321 326.842,252.567" id="Fill-45"></path>
                <path d="M372.191,248.562 C371.211,244.307 368.932,240.554 365.604,237.716 C361.269,234.014 355.538,232.303 349.88,233.027 L348.948,233.146 L348.974,234.083 C349.015,235.41 349.187,236.74 349.48,238.031 C350.462,242.286 352.736,246.04 356.067,248.88 C360.403,252.58 366.14,254.285 371.793,253.563 L372.726,253.446 L372.699,252.504 C372.653,251.177 372.485,249.85 372.191,248.562" id="Fill-46"></path>
                <path d="M124.154,293.349 L124.707,292.563 L123.978,291.939 C120.455,288.922 115.714,287.489 111.099,288.062 C106.469,288.643 102.268,291.17 99.582,294.993 L99.029,295.779 L99.755,296.402 C101.788,298.142 104.231,299.381 106.823,299.979 C108.726,300.422 110.674,300.522 112.628,300.276 C117.264,299.701 121.463,297.171 124.154,293.349" id="Fill-47"></path>
                <path d="M52.276,269.224 L52.512,267.959 L51.275,267.597 C45.218,265.834 38.683,266.71 33.294,270.009 C27.92,273.298 24.171,278.739 22.995,284.941 L22.757,286.21 L23.993,286.569 C29.349,288.126 35.047,287.654 40.044,285.217 C40.696,284.898 41.348,284.544 41.971,284.159 C47.347,280.865 51.099,275.423 52.276,269.224" id="Fill-48"></path>
                <path d="M111.998,279.488 L111.628,280.386 L112.482,280.838 C114.871,282.102 117.554,282.78 120.242,282.794 C122.215,282.807 124.158,282.474 126.028,281.798 C130.47,280.201 134.047,276.774 135.851,272.411 L136.22,271.514 L135.364,271.06 C131.222,268.869 126.231,268.51 121.81,270.099 C117.375,271.701 113.796,275.124 111.998,279.488" id="Fill-49"></path>
                <path d="M129.679,264.567 C131.648,264.426 133.558,263.941 135.369,263.119 C139.672,261.179 142.969,257.482 144.424,252.99 L144.722,252.066 L143.833,251.682 C139.531,249.823 134.527,249.857 130.244,251.789 C125.95,253.733 122.65,257.427 121.201,261.919 L120.903,262.843 L121.79,263.227 C124.271,264.299 126.999,264.764 129.679,264.567" id="Fill-50"></path>
                <path d="M97.392,307.637 C93.087,309.557 89.768,313.234 88.295,317.719 L87.992,318.64 L88.877,319.029 C91.352,320.115 94.077,320.595 96.759,320.412 C98.728,320.28 100.641,319.806 102.457,318.994 C106.77,317.076 110.086,313.397 111.565,308.913 L111.868,307.99 L110.981,307.601 C106.689,305.72 101.685,305.727 97.392,307.637" id="Fill-51"></path>
                <path d="M93.043,267.216 L92.1,267.266 C87.538,267.51 83.184,269.71 80.284,273.255 C77.378,276.815 76.1,281.472 76.783,286.022 L76.924,286.958 L77.865,286.908 C80.496,286.768 83.079,285.991 85.334,284.656 C86.991,283.679 88.449,282.426 89.673,280.923 C92.588,277.362 93.862,272.704 93.184,268.152 L93.043,267.216" id="Fill-52"></path>
                <path d="M115.017,258.15 L114.314,258.188 C110.914,258.369 107.668,260.01 105.506,262.652 C103.339,265.307 102.387,268.777 102.897,272.17 L103.002,272.868 L103.703,272.83 C105.665,272.726 107.59,272.146 109.271,271.151 C110.506,270.422 111.593,269.489 112.505,268.369 C114.678,265.714 115.628,262.242 115.122,258.849 L115.017,258.15" id="Fill-53"></path>
                <path d="M45.192,251.864 C43.017,251.98 40.941,253.029 39.559,254.719 C38.173,256.416 37.564,258.636 37.89,260.806 L37.957,261.252 L38.405,261.228 C39.66,261.161 40.891,260.791 41.966,260.154 C42.756,259.688 43.451,259.091 44.035,258.375 C45.424,256.677 46.032,254.456 45.709,252.286 L45.642,251.84 L45.192,251.864" id="Fill-54"></path>
                <path d="M93.023,290.674 L93.724,290.637 C95.685,290.533 97.611,289.953 99.292,288.958 C100.527,288.229 101.613,287.296 102.526,286.175 C104.699,283.52 105.649,280.049 105.143,276.655 L105.038,275.957 L104.335,275.995 C100.935,276.176 97.689,277.816 95.527,280.459 C93.36,283.113 92.408,286.584 92.918,289.976 L93.023,290.674" id="Fill-55"></path>
                <path d="M126.733,346.032 L127.821,345.133 C130.863,342.618 133.278,339.379 134.801,335.762 C135.924,333.107 136.562,330.3 136.695,327.399 C137.027,320.515 134.407,313.773 129.531,308.899 L128.526,307.898 L127.437,308.8 C122.163,313.161 118.886,319.691 118.557,326.544 C118.234,333.421 120.849,340.163 125.729,345.031 L126.733,346.032" id="Fill-56"></path>
                <path d="M142.706,309.813 C144.665,308.194 146.22,306.108 147.2,303.779 C147.923,302.069 148.334,300.263 148.42,298.394 C148.633,293.962 146.946,289.62 143.807,286.482 L143.16,285.838 L142.458,286.418 C139.063,289.226 136.953,293.432 136.74,297.844 C136.533,302.271 138.216,306.613 141.359,309.747 L142.005,310.391 L142.706,309.813" id="Fill-57"></path>
                <path d="M156.522,292.006 L157.238,292.572 L157.868,291.917 C159.628,290.084 160.935,287.834 161.643,285.408 C162.166,283.628 162.367,281.785 162.238,279.92 C161.944,275.491 159.772,271.372 156.294,268.613 L155.578,268.046 L154.947,268.704 C151.895,271.881 150.279,276.301 150.573,280.708 C150.873,285.131 153.042,289.251 156.522,292.006" id="Fill-58"></path>
                <path d="M168.259,276.307 L168.976,276.874 L169.605,276.22 C171.366,274.387 172.672,272.136 173.38,269.71 C173.903,267.93 174.104,266.087 173.976,264.222 C173.681,259.793 171.509,255.674 168.031,252.915 L167.315,252.349 L166.684,253.006 C163.632,256.183 162.017,260.603 162.31,265.01 C162.61,269.433 164.779,273.554 168.259,276.307" id="Fill-59"></path>
                <path d="M183.269,260.642 L183.824,261.081 L184.313,260.573 C185.678,259.152 186.691,257.407 187.241,255.525 C187.646,254.144 187.802,252.715 187.703,251.268 C187.474,247.833 185.789,244.639 183.092,242.499 L182.536,242.059 L182.047,242.569 C179.68,245.034 178.427,248.461 178.654,251.88 C178.887,255.31 180.569,258.506 183.269,260.642" id="Fill-60"></path>
                <path d="M73.636,235.717 L72.671,235.767 C66.786,236.078 61.438,238.767 57.666,243.378 C53.972,247.907 52.352,253.814 53.218,259.6 L53.36,260.554 L54.326,260.504 C59.878,260.211 64.972,257.778 68.682,253.653 C68.9,253.407 69.121,253.155 69.329,252.895 C73.025,248.369 74.646,242.455 73.776,236.673 L73.636,235.717" id="Fill-61"></path>
                <path d="M94.643,231.537 C98.446,231.229 101.893,229.464 104.358,226.564 C104.503,226.391 104.649,226.214 104.788,226.032 C107.235,222.857 108.235,218.77 107.528,214.822 L107.414,214.169 L106.753,214.222 C102.722,214.548 99.106,216.494 96.607,219.728 C94.16,222.904 93.162,226.987 93.866,230.938 L93.982,231.589 L94.643,231.537" id="Fill-62"></path>
                <path d="M124.832,211.332 L124.205,211.43 C120.385,212.033 117.077,214.151 114.927,217.417 C112.824,220.623 112.168,224.59 113.126,228.307 L113.283,228.92 L113.91,228.822 C117.515,228.253 120.674,226.32 122.816,223.375 C122.941,223.2 123.068,223.02 123.187,222.837 C125.292,219.632 125.948,215.661 124.988,211.947 L124.832,211.332" id="Fill-63"></path>
                <path d="M80.641,242.811 C83.655,241.853 86.109,239.783 87.559,236.98 C87.644,236.813 87.729,236.643 87.806,236.47 C89.191,233.449 89.234,229.961 87.925,226.904 L87.712,226.398 L87.187,226.564 C83.993,227.58 81.436,229.828 80.021,232.907 C78.638,235.929 78.595,239.412 79.901,242.473 L80.117,242.977 L80.641,242.811" id="Fill-64"></path>
                <path d="M134.688,225.105 C138.31,224.667 141.538,222.849 143.784,219.984 C143.916,219.812 144.049,219.638 144.174,219.459 C146.394,216.331 147.193,212.388 146.368,208.64 L146.233,208.021 L145.604,208.097 C141.764,208.561 138.381,210.558 136.116,213.744 C133.898,216.872 133.099,220.813 133.922,224.562 L134.058,225.181 L134.688,225.105" id="Fill-65"></path>
                <path d="M150.278,233.154 C153.9,232.716 157.128,230.898 159.374,228.033 C159.506,227.862 159.639,227.687 159.764,227.508 C161.983,224.381 162.784,220.437 161.958,216.689 L161.824,216.07 L161.194,216.145 C157.355,216.61 153.972,218.607 151.706,221.793 C149.488,224.922 148.69,228.862 149.513,232.612 L149.648,233.23 L150.278,233.154" id="Fill-66"></path>
                <path d="M119.563,232.348 L119.058,232.728 L119.389,233.269 C121.296,236.38 124.295,238.556 127.835,239.404 C128.045,239.453 128.26,239.501 128.475,239.54 C132.242,240.255 136.161,239.338 139.223,237.027 L139.73,236.646 L139.399,236.105 C137.377,232.808 134.152,230.566 130.312,229.834 C126.544,229.121 122.629,230.037 119.563,232.348" id="Fill-67"></path>
                <path d="M177.705,186.52 L178.085,186.854 L178.455,186.507 C180.582,184.507 181.798,181.805 181.887,178.893 C181.891,178.721 181.894,178.545 181.89,178.37 C181.837,175.303 180.482,172.383 178.172,170.36 L177.793,170.024 L177.422,170.372 C175.169,172.492 173.937,175.383 173.988,178.51 C174.043,181.578 175.396,184.494 177.705,186.52" id="Fill-68"></path>
                <path d="M167.218,173.265 L167.645,173.024 C170.1,171.637 171.862,169.383 172.615,166.673 C172.659,166.512 172.702,166.348 172.738,166.183 C173.394,163.294 172.795,160.244 171.095,157.815 L170.816,157.412 L170.389,157.654 C167.788,159.123 165.967,161.551 165.295,164.496 C164.641,167.385 165.239,170.432 166.938,172.864 L167.218,173.265" id="Fill-69"></path>
                <path d="M160.865,162.175 L161.32,162.352 L161.542,161.915 C162.812,159.398 163.024,156.544 162.144,153.873 C162.091,153.715 162.036,153.554 161.974,153.397 C160.914,150.631 158.721,148.428 155.958,147.353 L155.502,147.174 L155.281,147.612 C153.935,150.279 153.771,153.309 154.849,156.131 C155.91,158.897 158.101,161.098 160.865,162.175" id="Fill-70"></path>
                <path d="M157.134,136.527 L156.746,136.828 L157.009,137.241 C158.587,139.75 161.166,141.487 164.083,142.004 C164.248,142.035 164.417,142.058 164.582,142.081 C167.372,142.439 170.133,141.689 172.364,139.966 L172.752,139.666 L172.491,139.252 C170.91,136.743 168.334,135.008 165.417,134.49 C162.442,133.965 159.498,134.701 157.134,136.527" id="Fill-71"></path>
                <path d="M155.135,140.848 L154.935,140.532 C153.725,138.611 151.753,137.283 149.52,136.886 C147.243,136.484 144.989,137.047 143.179,138.446 L142.882,138.676 L143.083,138.992 C144.291,140.913 146.265,142.242 148.498,142.638 C148.625,142.661 148.754,142.68 148.88,142.697 C151.016,142.972 153.13,142.397 154.838,141.078 L155.135,140.848" id="Fill-72"></path>
                <path d="M142.675,127.82 L142.938,128.234 C144.516,130.743 147.094,132.479 150.011,132.996 C150.177,133.027 150.345,133.051 150.511,133.073 C153.3,133.432 156.062,132.682 158.293,130.958 L158.681,130.658 L158.42,130.245 C156.839,127.735 154.263,126 151.346,125.482 C148.372,124.958 145.427,125.693 143.063,127.52 L142.675,127.82" id="Fill-73"></path>
                <path d="M168.245,145.455 L167.857,145.755 L168.119,146.169 C169.697,148.679 172.276,150.414 175.193,150.932 C175.359,150.962 175.527,150.986 175.692,151.009 C178.483,151.367 181.244,150.618 183.475,148.894 L183.862,148.594 L183.602,148.18 C182.021,145.671 179.445,143.936 176.528,143.417 C173.553,142.893 170.609,143.629 168.245,145.455" id="Fill-74"></path>
                <path d="M189.156,152.874 C186.182,152.349 183.238,153.085 180.874,154.911 L180.486,155.212 L180.748,155.625 C182.326,158.135 184.905,159.871 187.822,160.388 C187.988,160.419 188.156,160.443 188.321,160.465 C191.111,160.823 193.873,160.074 196.104,158.35 L196.491,158.05 L196.231,157.637 C194.649,155.127 192.073,153.392 189.156,152.874" id="Fill-75"></path>
                <path d="M200.444,162.557 C197.47,162.033 194.526,162.768 192.162,164.595 L191.774,164.894 L192.036,165.308 C193.614,167.818 196.193,169.554 199.11,170.071 C199.276,170.102 199.444,170.126 199.609,170.148 C202.399,170.506 205.161,169.757 207.392,168.033 L207.779,167.733 L207.519,167.32 C205.938,164.81 203.361,163.075 200.444,162.557" id="Fill-76"></path>
                <path d="M215.587,171.828 C211.799,171.052 208.005,171.888 204.914,174.141 L204.408,174.511 L204.729,175.05 C206.658,178.317 209.897,180.631 213.611,181.396 C213.822,181.442 214.037,181.478 214.247,181.513 C217.805,182.071 221.365,181.209 224.281,179.083 L224.788,178.713 L224.469,178.175 C222.535,174.907 219.301,172.596 215.587,171.828" id="Fill-77"></path>
                <path d="M223.659,183.156 C219.842,183.771 216.591,185.897 214.499,189.099 L214.156,189.625 L214.647,190.015 C217.609,192.387 221.457,193.403 225.202,192.803 C225.415,192.77 225.629,192.729 225.838,192.686 C229.362,191.948 232.387,189.881 234.36,186.86 L234.703,186.334 L234.214,185.944 C231.248,183.573 227.404,182.557 223.659,183.156" id="Fill-78"></path>
                <path d="M205.981,188.494 L206.592,188.35 L206.507,187.73 C205.999,183.968 203.92,180.579 200.797,178.426 C197.611,176.236 193.791,175.529 190.067,176.401 L189.456,176.545 L189.542,177.165 C190.047,180.927 192.129,184.318 195.252,186.47 C195.429,186.594 195.612,186.711 195.793,186.825 C198.852,188.724 202.467,189.317 205.981,188.494" id="Fill-79"></path>
                <path d="M182.388,169.138 C184.41,170.392 186.799,170.785 189.121,170.241 L189.525,170.146 L189.469,169.736 C189.133,167.249 187.759,165.01 185.695,163.587 C183.589,162.14 181.065,161.672 178.604,162.248 L178.2,162.343 L178.257,162.754 C178.59,165.24 179.966,167.481 182.03,168.903 C182.148,168.985 182.269,169.062 182.388,169.138" id="Fill-80"></path>
                <path d="M213.727,197.111 C215.27,198.069 217.094,198.369 218.866,197.953 L219.175,197.881 L219.132,197.568 C218.876,195.67 217.826,193.96 216.252,192.874 C214.644,191.769 212.717,191.413 210.838,191.853 L210.531,191.925 L210.574,192.239 C210.829,194.136 211.879,195.847 213.454,196.932 C213.544,196.994 213.636,197.054 213.727,197.111" id="Fill-81"></path>
                <path d="M230.459,208.572 L230.763,208.781 L230.999,208.499 C232.435,206.79 233.087,204.547 232.79,202.338 C232.483,200.086 231.281,198.145 229.431,196.869 L229.127,196.661 L228.891,196.944 C227.454,198.65 226.801,200.895 227.1,203.104 C227.115,203.23 227.137,203.356 227.159,203.48 C227.542,205.561 228.712,207.368 230.459,208.572" id="Fill-82"></path>
                <path d="M163.022,150.577 C164.462,151.471 166.165,151.75 167.819,151.363 L168.107,151.295 L168.067,151.003 C167.828,149.231 166.848,147.636 165.378,146.622 C163.878,145.591 162.079,145.258 160.326,145.668 L160.038,145.736 L160.079,146.028 C160.316,147.799 161.297,149.396 162.767,150.409 L163.022,150.577" id="Fill-83"></path>
                <path d="M173.533,157.536 C174.974,158.431 176.676,158.71 178.33,158.323 L178.618,158.255 L178.578,157.963 C178.338,156.191 177.359,154.596 175.889,153.582 C174.389,152.551 172.59,152.218 170.837,152.628 L170.549,152.696 L170.59,152.988 C170.828,154.759 171.808,156.356 173.278,157.369 L173.533,157.536" id="Fill-84"></path>
                <path d="M148.833,157.467 L149.289,157.644 L149.51,157.207 C150.78,154.69 150.993,151.836 150.113,149.165 C150.06,149.007 150.004,148.847 149.942,148.689 C148.882,145.923 146.689,143.72 143.926,142.645 L143.47,142.466 L143.249,142.904 C141.903,145.571 141.739,148.601 142.817,151.423 C143.878,154.189 146.069,156.39 148.833,157.467" id="Fill-85"></path>
                <path d="M130.8,138.425 L130.344,138.245 L130.123,138.683 C128.777,141.35 128.612,144.381 129.691,147.202 C130.752,149.968 132.943,152.169 135.707,153.246 L136.162,153.424 L136.383,152.986 C137.653,150.47 137.866,147.616 136.986,144.944 C136.933,144.786 136.878,144.626 136.816,144.469 C135.756,141.702 133.563,139.499 130.8,138.425" id="Fill-86"></path>
                <path d="M140.09,133.56 L140.575,133.5 L140.563,133.01 C140.485,130.192 139.317,127.579 137.274,125.646 C137.152,125.532 137.028,125.417 136.899,125.308 C134.652,123.377 131.676,122.479 128.734,122.846 L128.248,122.905 L128.261,123.395 C128.343,126.381 129.637,129.126 131.926,131.098 C134.173,133.028 137.147,133.924 140.09,133.56" id="Fill-87"></path>
                <path d="M119.377,144.474 C120.936,145.814 122.999,146.436 125.041,146.183 L125.378,146.141 L125.368,145.802 C125.315,143.847 124.505,142.034 123.087,140.693 L122.827,140.458 C121.268,139.119 119.203,138.496 117.163,138.75 L116.825,138.791 L116.835,139.131 C116.892,141.203 117.789,143.107 119.377,144.474" id="Fill-88"></path>
                <path d="M210.814,211.966 L211.4,212.204 L211.694,211.643 C213.386,208.41 213.717,204.72 212.629,201.245 C212.564,201.04 212.495,200.831 212.418,200.627 C211.099,197.026 208.303,194.132 204.748,192.689 L204.161,192.449 L203.866,193.01 C202.073,196.437 201.802,200.356 203.143,204.028 C204.464,207.628 207.257,210.519 210.814,211.966" id="Fill-89"></path>
                <path d="M227.601,236.795 L227.931,237.092 L228.259,236.791 C230.145,235.061 231.241,232.705 231.351,230.154 C231.356,230.003 231.36,229.849 231.358,229.696 C231.345,227.006 230.19,224.432 228.188,222.633 L227.858,222.334 L227.529,222.635 C225.531,224.469 224.419,226.99 224.43,229.732 C224.444,232.421 225.599,234.994 227.601,236.795" id="Fill-90"></path>
                <path d="M222.096,223.647 L222.572,224.077 L223.048,223.642 C225.776,221.138 227.363,217.729 227.522,214.037 C227.529,213.818 227.536,213.595 227.533,213.373 C227.514,209.481 225.842,205.755 222.944,203.152 L222.467,202.721 L221.992,203.156 C219.1,205.809 217.491,209.457 217.506,213.426 C217.527,217.318 219.198,221.04 222.096,223.647" id="Fill-91"></path>
                <path d="M235.204,254.848 L235.695,254.447 C238.519,252.135 240.27,248.87 240.63,245.247 C240.65,245.033 240.669,244.814 240.679,244.596 C240.876,240.766 239.438,237.008 236.733,234.286 L236.287,233.835 L235.796,234.236 C232.804,236.686 231.018,240.185 230.813,244.089 C230.616,247.919 232.054,251.674 234.758,254.398 L235.204,254.848" id="Fill-92"></path>
                <path d="M233.748,216.084 L233.563,216.595 C232.44,219.711 232.665,223.068 234.23,226.029 C235.769,228.931 238.476,231.059 241.662,231.874 L242.187,232.009 L242.372,231.497 C243.432,228.557 243.283,225.388 241.957,222.565 C241.877,222.399 241.794,222.229 241.705,222.065 C240.168,219.162 237.458,217.032 234.274,216.22 L233.748,216.084" id="Fill-93"></path>
                <path d="M243.935,215.39 L244.46,215.525 L244.645,215.014 C245.704,212.074 245.557,208.904 244.23,206.082 C244.149,205.915 244.067,205.746 243.979,205.581 C242.441,202.679 239.732,200.548 236.546,199.736 L236.021,199.6 L235.836,200.111 C234.712,203.227 234.938,206.585 236.502,209.545 C238.042,212.447 240.748,214.576 243.935,215.39" id="Fill-94"></path>
                <path d="M185.881,198.609 C188.438,201.467 192.107,203.121 195.943,203.147 L196.577,203.154 L196.643,202.523 C197.042,198.676 195.844,194.935 193.24,192.019 C190.682,189.162 187.017,187.51 183.178,187.481 L182.545,187.475 L182.479,188.107 C182.103,191.736 183.16,195.286 185.456,198.112 C185.593,198.279 185.734,198.448 185.881,198.609" id="Fill-95"></path>
                <path d="M92.084,243.677 L91.682,244.167 L92.132,244.614 C94.722,247.185 98.149,248.59 101.79,248.576 C102.006,248.574 102.226,248.57 102.444,248.557 C106.274,248.359 109.864,246.541 112.292,243.571 L112.695,243.081 L112.245,242.634 C109.501,239.91 105.836,238.494 101.932,238.691 C98.102,238.89 94.515,240.706 92.084,243.677" id="Fill-96"></path>
                <path d="M77.885,254.263 L77.551,254.669 L77.925,255.041 C80.077,257.177 82.925,258.345 85.95,258.333 C86.129,258.331 86.312,258.328 86.493,258.317 C89.675,258.153 92.658,256.642 94.676,254.174 L95.011,253.767 L94.637,253.396 C92.357,251.132 89.312,249.955 86.067,250.119 C82.885,250.286 79.905,251.794 77.885,254.263" id="Fill-97"></path>
                <path d="M59.605,266.761 L59.185,267.273 L59.656,267.742 C62.369,270.435 65.96,271.907 69.774,271.892 C70.001,271.89 70.231,271.886 70.459,271.872 C74.471,271.665 78.233,269.762 80.777,266.649 L81.199,266.136 L80.728,265.667 C77.852,262.813 74.013,261.33 69.923,261.537 C65.91,261.745 62.153,263.648 59.605,266.761" id="Fill-98"></path>
                <path d="M85.826,293.789 L84.877,293.971 C79.09,295.084 74.16,298.48 71.054,303.564 C68.015,308.555 67.22,314.629 68.87,320.242 L69.141,321.167 L70.09,320.985 C75.551,319.934 80.263,316.827 83.374,312.233 C83.556,311.96 83.74,311.68 83.911,311.394 C86.952,306.404 87.749,300.324 86.096,294.716 L85.826,293.789" id="Fill-99"></path>
                <path d="M66.036,281.755 L65.071,281.805 C59.186,282.116 53.838,284.805 50.066,289.416 C46.372,293.943 44.752,299.851 45.618,305.638 L45.76,306.592 L46.726,306.541 C52.278,306.248 57.372,303.815 61.082,299.689 C61.3,299.443 61.521,299.191 61.729,298.932 C65.425,294.406 67.046,288.492 66.176,282.71 L66.036,281.755" id="Fill-100"></path>
                <path d="M34.366,251.143 C35.07,250.023 35.673,248.824 36.152,247.586 L36.486,246.711 L35.647,246.29 C30.548,243.732 24.574,243.448 19.258,245.505 C15.177,247.079 11.783,249.866 9.449,253.556 C8.744,254.673 8.146,255.869 7.664,257.106 L7.326,257.987 L8.168,258.406 C13.262,260.96 19.239,261.252 24.557,259.198 C28.64,257.621 32.03,254.833 34.366,251.143" id="Fill-101"></path>
                <path d="M49.707,215.66 C45.714,215.371 41.818,216.353 38.446,218.496 C37.426,219.147 36.464,219.903 35.582,220.739 L34.959,221.336 L35.492,222.012 C38.712,226.114 43.546,228.688 48.75,229.062 C52.745,229.351 56.639,228.366 60.014,226.224 C61.034,225.571 62.001,224.814 62.88,223.975 L63.498,223.381 L62.968,222.705 C59.745,218.598 54.911,216.032 49.707,215.66" id="Fill-102"></path>
                <path d="M34.22,200.184 L33.803,200.584 L34.159,201.036 C36.316,203.783 39.553,205.507 43.037,205.758 C45.712,205.951 48.32,205.291 50.579,203.856 C51.262,203.419 51.91,202.912 52.499,202.351 L52.913,201.953 L52.557,201.501 C50.399,198.751 47.163,197.032 43.678,196.783 C41.004,196.59 38.395,197.247 36.138,198.682 C35.455,199.118 34.81,199.624 34.22,200.184" id="Fill-103"></path>
                <path d="M51.059,191.6 C54.105,193.114 57.482,193.595 60.823,192.998 C61.835,192.814 62.838,192.531 63.799,192.156 L64.477,191.888 L64.277,191.186 C63.068,186.921 60.098,183.347 56.13,181.378 C53.086,179.865 49.708,179.382 46.369,179.979 C45.358,180.161 44.358,180.446 43.396,180.818 L42.714,181.086 L42.915,181.789 C44.124,186.049 47.092,189.629 51.059,191.6" id="Fill-104"></path>
                <path d="M63.996,164.12 C62.518,161.865 60.4,160.181 57.875,159.252 C57.11,158.972 56.312,158.766 55.504,158.636 L54.93,158.547 L54.786,159.108 C53.906,162.508 54.504,166.147 56.43,169.086 C57.909,171.342 60.027,173.024 62.553,173.954 C63.32,174.233 64.12,174.441 64.928,174.57 L65.499,174.658 L65.644,174.098 C66.525,170.694 65.923,167.057 63.996,164.12" id="Fill-105"></path>
                <path d="M78.006,178.734 C78.609,178.954 79.239,179.118 79.875,179.219 L80.324,179.288 L80.439,178.848 C81.132,176.168 80.658,173.306 79.141,170.993 C77.978,169.218 76.31,167.892 74.323,167.161 C73.72,166.94 73.092,166.779 72.456,166.676 L72.004,166.605 L71.891,167.047 C71.198,169.724 71.669,172.589 73.186,174.902 C74.349,176.678 76.017,178.002 78.006,178.734" id="Fill-106"></path>
                <path d="M91.324,184.609 C91.833,184.794 92.363,184.932 92.899,185.017 L93.278,185.076 L93.375,184.704 C93.959,182.446 93.56,180.033 92.281,178.083 C91.3,176.587 89.895,175.469 88.219,174.853 C87.712,174.667 87.182,174.531 86.646,174.444 L86.265,174.385 L86.17,174.757 C85.586,177.014 85.983,179.429 87.261,181.378 C88.242,182.876 89.648,183.992 91.324,184.609" id="Fill-107"></path>
                <path d="M104.542,190.792 C104.957,190.943 105.39,191.056 105.828,191.125 L106.137,191.173 L106.215,190.869 C106.692,189.026 106.367,187.057 105.323,185.466 C104.523,184.244 103.375,183.332 102.007,182.829 C101.593,182.677 101.161,182.566 100.723,182.495 L100.412,182.447 L100.335,182.751 C99.858,184.593 100.182,186.563 101.225,188.155 C102.026,189.377 103.173,190.288 104.542,190.792" id="Fill-108"></path>
                <path d="M115.262,189.117 C115.898,189.348 116.561,189.521 117.23,189.627 L117.703,189.7 L117.823,189.236 C118.553,186.415 118.055,183.401 116.458,180.967 C115.233,179.099 113.478,177.703 111.385,176.933 C110.751,176.701 110.089,176.531 109.42,176.422 L108.944,176.348 L108.825,176.813 C108.096,179.631 108.592,182.647 110.188,185.082 C111.413,186.952 113.169,188.346 115.262,189.117" id="Fill-109"></path>
                <path d="M125.611,186.302 C127.564,187.39 129.766,187.809 131.978,187.52 C132.648,187.43 133.316,187.275 133.958,187.058 L134.411,186.903 L134.302,186.436 C133.639,183.599 131.798,181.161 129.253,179.747 C127.302,178.66 125.099,178.239 122.888,178.528 C122.219,178.617 121.554,178.773 120.911,178.988 L120.455,179.143 L120.565,179.611 C121.228,182.445 123.066,184.886 125.611,186.302" id="Fill-110"></path>
                <path d="M137.566,177.951 C136.897,178.039 136.232,178.196 135.588,178.411 L135.132,178.566 L135.243,179.033 C135.905,181.868 137.744,184.309 140.289,185.724 C142.242,186.812 144.444,187.231 146.656,186.942 C147.326,186.852 147.993,186.698 148.636,186.481 L149.088,186.326 L148.979,185.859 C148.316,183.021 146.476,180.584 143.931,179.169 C141.979,178.082 139.776,177.661 137.566,177.951" id="Fill-111"></path>
                <path d="M132.336,166.33 C130.105,166.453 128.018,167.273 126.303,168.699 C125.784,169.131 125.305,169.618 124.877,170.143 L124.574,170.517 L124.917,170.854 C126.99,172.896 129.849,173.979 132.756,173.817 C134.988,173.694 137.074,172.872 138.79,171.447 C139.308,171.013 139.79,170.525 140.217,169.999 L140.517,169.626 L140.176,169.29 C138.1,167.245 135.242,166.166 132.336,166.33" id="Fill-112"></path>
                <path d="M120.831,174.708 L121.102,174.552 L120.973,174.266 C120.191,172.533 118.705,171.204 116.897,170.619 C115.51,170.168 114.046,170.176 112.667,170.64 C112.25,170.781 111.844,170.965 111.459,171.183 L111.187,171.34 L111.316,171.626 C112.097,173.357 113.583,174.689 115.39,175.275 C116.778,175.726 118.241,175.717 119.621,175.253 C120.039,175.111 120.447,174.928 120.831,174.708" id="Fill-113"></path>
                <path d="M102.022,179.39 C102.727,179.479 103.447,179.502 104.158,179.454 L104.66,179.418 L104.675,178.914 C104.765,175.852 103.55,172.88 101.344,170.758 C99.652,169.128 97.527,168.108 95.202,167.807 C94.499,167.717 93.78,167.697 93.069,167.743 L92.564,167.778 L92.55,168.283 C92.462,171.341 93.673,174.317 95.878,176.44 C97.571,178.071 99.696,179.089 102.022,179.39" id="Fill-114"></path>
                <path d="M108.524,167.53 L108.537,167.092 C108.614,164.435 107.56,161.855 105.646,160.013 C104.177,158.599 102.333,157.713 100.315,157.452 C99.704,157.374 99.081,157.356 98.463,157.396 L98.025,157.426 L98.013,157.864 C97.936,160.519 98.988,163.102 100.901,164.945 C102.371,166.36 104.215,167.244 106.234,167.506 C106.846,167.583 107.471,167.602 108.088,167.561 L108.524,167.53" id="Fill-115"></path>
                <path d="M94.355,164.414 L94.915,164.374 L94.931,163.812 C95.031,160.396 93.676,157.08 91.215,154.712 C89.328,152.894 86.957,151.756 84.364,151.42 C83.578,151.32 82.777,151.298 81.984,151.349 L81.42,151.388 L81.405,151.951 C81.306,155.363 82.658,158.683 85.118,161.052 C87.006,162.871 89.377,164.007 91.972,164.343 C92.758,164.442 93.562,164.467 94.355,164.414" id="Fill-116"></path>
                <path d="M72.121,157.241 L72.813,157.192 L72.833,156.497 C72.957,152.277 71.282,148.18 68.241,145.255 C65.91,143.008 62.98,141.601 59.775,141.187 C58.805,141.063 57.816,141.036 56.835,141.098 L56.139,141.146 L56.12,141.842 C55.998,146.058 57.668,150.16 60.708,153.087 C63.041,155.334 65.97,156.739 69.176,157.154 C70.148,157.276 71.14,157.307 72.121,157.241" id="Fill-117"></path>
                <path d="M72.137,119.791 C70.838,119.323 69.483,118.981 68.113,118.767 L67.14,118.62 L66.9,119.573 C65.439,125.344 66.483,131.506 69.774,136.469 C72.298,140.281 75.903,143.113 80.192,144.668 C81.494,145.134 82.852,145.48 84.222,145.691 L85.19,145.835 L85.431,144.884 C86.895,139.108 85.844,132.951 82.552,127.989 C80.029,124.18 76.424,121.344 72.137,119.791" id="Fill-118"></path>
                <path d="M103.479,127.139 C104.677,121.302 103.346,115.199 99.831,110.392 C97.137,106.703 93.406,104.034 89.053,102.679 C87.733,102.27 86.365,101.991 84.987,101.839 L84.007,101.737 L83.812,102.7 C82.615,108.531 83.94,114.64 87.453,119.448 C90.149,123.14 93.88,125.804 98.235,127.161 C99.557,127.568 100.929,127.852 102.308,127.999 L103.281,128.099 L103.479,127.139" id="Fill-119"></path>
                <path d="M120.599,136.64 C121.585,136.944 122.609,137.156 123.638,137.266 L124.365,137.341 L124.512,136.623 C125.407,132.266 124.414,127.711 121.79,124.123 C119.778,121.369 116.994,119.377 113.744,118.365 C112.759,118.06 111.737,117.851 110.709,117.739 L109.978,117.662 L109.832,118.381 C108.939,122.733 109.927,127.293 112.55,130.882 C114.563,133.639 117.347,135.627 120.599,136.64" id="Fill-120"></path>
                <path d="M142.325,120.941 L142.473,120.224 C143.368,115.867 142.374,111.311 139.75,107.724 C137.739,104.969 134.954,102.977 131.704,101.965 C130.72,101.661 129.698,101.452 128.67,101.339 L127.938,101.263 L127.792,101.981 C126.899,106.334 127.888,110.893 130.51,114.482 C132.523,117.239 135.308,119.227 138.559,120.241 C139.545,120.544 140.57,120.756 141.599,120.866 L142.325,120.941" id="Fill-121"></path>
                <path d="M149.574,84.01 C148.589,83.705 147.567,83.496 146.539,83.383 L145.807,83.307 L145.662,84.025 C144.769,88.378 145.757,92.938 148.379,96.527 C150.392,99.283 153.177,101.272 156.428,102.285 C157.415,102.589 158.439,102.801 159.468,102.911 L160.195,102.985 L160.342,102.268 C161.237,97.911 160.243,93.355 157.62,89.768 C155.608,87.013 152.823,85.021 149.574,84.01" id="Fill-122"></path>
                <path d="M150.714,105.178 C149.729,104.873 148.708,104.664 147.679,104.551 L146.947,104.475 L146.801,105.194 C145.909,109.546 146.897,114.106 149.52,117.695 C151.532,120.451 154.317,122.44 157.568,123.453 C158.555,123.757 159.579,123.969 160.608,124.079 L161.335,124.153 L161.482,123.436 C162.377,119.079 161.383,114.523 158.759,110.936 C156.748,108.182 153.963,106.189 150.714,105.178" id="Fill-123"></path>
                <path d="M178.894,111.446 L179.114,110.748 C180.452,106.506 179.933,101.872 177.692,98.034 C175.976,95.087 173.411,92.819 170.282,91.478 C169.335,91.073 168.339,90.761 167.328,90.542 L166.608,90.391 L166.389,91.091 C165.053,95.328 165.567,99.966 167.806,103.806 C169.524,106.754 172.089,109.019 175.219,110.362 C176.169,110.765 177.166,111.081 178.178,111.297 L178.894,111.446" id="Fill-124"></path>
                <path d="M192.179,100.753 C192.994,101.099 193.85,101.371 194.719,101.556 L195.333,101.684 L195.523,101.084 C196.672,97.443 196.226,93.464 194.302,90.169 C192.828,87.639 190.626,85.691 187.941,84.54 C187.126,84.193 186.272,83.924 185.404,83.737 L184.786,83.607 L184.598,84.208 C183.451,87.846 183.892,91.828 185.814,95.124 C187.289,97.656 189.492,99.6 192.179,100.753" id="Fill-125"></path>
                <path d="M201.631,77.275 L201.295,77.808 C199.252,81.03 198.657,84.991 199.669,88.671 C200.445,91.496 202.075,93.941 204.376,95.744 C205.075,96.288 205.833,96.77 206.625,97.172 L207.186,97.453 L207.523,96.923 C209.568,93.698 210.158,89.738 209.145,86.059 C208.369,83.236 206.74,80.788 204.44,78.987 C203.742,78.442 202.986,77.963 202.194,77.559 L201.631,77.275" id="Fill-126"></path>
                <path d="M199.669,109.342 C200.445,112.167 202.075,114.612 204.376,116.416 C205.075,116.96 205.833,117.442 206.625,117.844 L207.186,118.125 L207.523,117.594 C209.568,114.369 210.158,110.41 209.145,106.731 C208.369,103.907 206.74,101.46 204.44,99.658 C203.742,99.114 202.986,98.635 202.194,98.231 L201.631,97.947 L201.295,98.479 C199.252,101.701 198.657,105.662 199.669,109.342" id="Fill-127"></path>
                <path d="M196.139,121.444 C197.395,117.838 197.067,113.848 195.242,110.497 C193.843,107.924 191.699,105.913 189.049,104.682 C188.246,104.311 187.399,104.017 186.537,103.805 L185.923,103.657 L185.718,104.252 C184.463,107.854 184.787,111.847 186.61,115.199 C188.01,117.773 190.154,119.782 192.806,121.014 C193.611,121.384 194.459,121.681 195.322,121.891 L195.932,122.037 L196.139,121.444" id="Fill-128"></path>
                <path d="M208.292,133.838 C208.987,134.034 209.708,134.165 210.429,134.224 L210.939,134.264 L211.03,133.76 C211.582,130.696 210.81,127.525 208.913,125.059 C207.459,123.166 205.477,121.82 203.186,121.167 C202.492,120.97 201.774,120.841 201.052,120.78 L200.539,120.739 L200.449,121.244 C199.898,124.305 200.667,127.478 202.563,129.945 C204.018,131.84 206,133.184 208.292,133.838" id="Fill-129"></path>
                <path d="M171.276,113.09 C170.513,112.641 169.7,112.266 168.862,111.97 L168.266,111.763 L168.003,112.334 C166.401,115.797 166.332,119.802 167.817,123.317 C168.958,126.015 170.895,128.225 173.413,129.711 C174.177,130.159 174.992,130.537 175.83,130.831 L176.423,131.036 L176.687,130.466 C178.291,127 178.357,122.997 176.868,119.484 C175.729,116.786 173.793,114.574 171.276,113.09" id="Fill-130"></path>
                <path d="M186.72,139.636 C187.294,140.13 187.92,140.574 188.58,140.951 L189.046,141.215 L189.357,140.776 C191.239,138.109 191.911,134.754 191.202,131.57 C190.659,129.126 189.373,126.968 187.485,125.332 C186.913,124.838 186.287,124.397 185.628,124.019 L185.159,123.752 L184.85,124.193 C182.969,126.857 182.294,130.214 183.001,133.398 C183.544,135.843 184.832,137.999 186.72,139.636" id="Fill-131"></path>
                <path d="M197.094,146.846 C197.511,147.327 197.978,147.772 198.48,148.166 L198.837,148.443 L199.148,148.116 C201.04,146.128 202.008,143.42 201.808,140.685 C201.655,138.586 200.849,136.634 199.479,135.043 C199.064,134.561 198.597,134.118 198.095,133.723 L197.738,133.444 L197.427,133.772 C195.537,135.758 194.565,138.468 194.764,141.203 C194.917,143.302 195.724,145.253 197.094,146.846" id="Fill-132"></path>
                <path d="M207.69,153.646 C208.171,154.202 208.71,154.716 209.29,155.17 L209.701,155.489 L210.06,155.112 C212.243,152.818 213.361,149.693 213.129,146.537 C212.954,144.116 212.023,141.863 210.442,140.026 C209.962,139.471 209.424,138.96 208.846,138.504 L208.433,138.182 L208.074,138.561 C205.894,140.852 204.771,143.978 205.002,147.135 C205.177,149.557 206.109,151.808 207.69,153.646" id="Fill-133"></path>
                <path d="M222.619,161.178 C223.247,161.558 223.918,161.881 224.61,162.135 L225.1,162.311 L225.325,161.842 C226.694,158.987 226.794,155.669 225.601,152.738 C224.687,150.489 223.108,148.633 221.037,147.373 C220.409,146.993 219.74,146.673 219.049,146.417 L218.557,146.238 L218.332,146.709 C216.965,149.562 216.861,152.882 218.053,155.813 C218.968,158.063 220.548,159.917 222.619,161.178" id="Fill-134"></path>
                <path d="M235.629,151.591 C235.002,151.211 234.332,150.89 233.641,150.635 L233.149,150.456 L232.924,150.927 C231.557,153.779 231.453,157.099 232.645,160.031 C233.56,162.281 235.14,164.135 237.211,165.396 C237.84,165.776 238.511,166.099 239.202,166.352 L239.691,166.529 L239.917,166.059 C241.286,163.204 241.386,159.887 240.192,156.956 C239.278,154.707 237.699,152.85 235.629,151.591" id="Fill-135"></path>
                <path d="M236.083,139.123 C234.27,137.508 232.032,136.541 229.619,136.326 C228.888,136.261 228.146,136.269 227.413,136.346 L226.893,136.402 L226.899,136.924 C226.932,140.087 228.306,143.112 230.669,145.215 C232.484,146.83 234.721,147.796 237.136,148.012 C237.867,148.075 238.612,148.068 239.345,147.99 L239.861,147.932 L239.857,147.411 C239.824,144.245 238.448,141.224 236.083,139.123" id="Fill-136"></path>
                <path d="M225.323,124.147 C223.325,122.767 220.986,122.081 218.565,122.163 C217.831,122.189 217.096,122.289 216.378,122.454 L215.869,122.574 L215.939,123.092 C216.359,126.226 218.094,129.059 220.698,130.857 C222.697,132.237 225.035,132.921 227.459,132.839 C228.192,132.812 228.931,132.714 229.649,132.547 L230.154,132.427 L230.085,131.91 C229.665,128.771 227.929,125.943 225.323,124.147" id="Fill-137"></path>
                <path d="M215.831,109.765 C215.34,109.629 214.833,109.54 214.323,109.5 L213.961,109.473 L213.899,109.83 C213.523,111.992 214.077,114.229 215.424,115.963 C216.459,117.294 217.863,118.235 219.483,118.688 C219.975,118.824 220.483,118.913 220.993,118.953 L221.354,118.978 L221.415,118.622 C221.793,116.458 221.236,114.223 219.888,112.49 C218.855,111.16 217.45,110.217 215.831,109.765" id="Fill-138"></path>
                <path d="M221.567,143.052 C222.06,143.187 222.568,143.277 223.078,143.316 L223.438,143.342 L223.5,142.986 C223.878,140.822 223.321,138.587 221.973,136.854 C220.94,135.523 219.535,134.58 217.916,134.128 C217.425,133.993 216.917,133.904 216.408,133.864 L216.046,133.837 L215.984,134.194 C215.607,136.356 216.162,138.593 217.51,140.327 C218.544,141.658 219.947,142.599 221.567,143.052" id="Fill-139"></path>
                <path d="M216.424,106.283 C216.915,106.418 217.424,106.508 217.934,106.547 L218.293,106.573 L218.356,106.217 C218.733,104.052 218.176,101.817 216.828,100.084 C215.795,98.754 214.391,97.811 212.771,97.359 C212.28,97.223 211.773,97.135 211.263,97.094 L210.901,97.067 L210.84,97.424 C210.462,99.587 211.018,101.824 212.365,103.557 C213.399,104.889 214.803,105.83 216.424,106.283" id="Fill-140"></path>
                <path d="M169.396,71.631 C168.411,71.326 167.39,71.118 166.361,71.004 L165.629,70.928 L165.484,71.647 C164.591,75.999 165.58,80.559 168.202,84.148 C170.214,86.904 173,88.893 176.251,89.907 C177.237,90.21 178.261,90.422 179.29,90.532 L180.017,90.606 L180.165,89.889 C181.059,85.532 180.066,80.976 177.442,77.389 C175.431,74.635 172.646,72.642 169.396,71.631" id="Fill-141"></path>
                <path d="M189.303,64.751 C188.58,64.292 187.806,63.902 187.005,63.587 L186.435,63.367 L186.161,63.911 C184.496,67.208 184.295,71.081 185.617,74.531 C186.63,77.181 188.43,79.383 190.817,80.905 C191.543,81.363 192.318,81.756 193.119,82.069 L193.686,82.287 L193.961,81.744 C195.628,78.444 195.824,74.573 194.502,71.124 C193.488,68.476 191.689,66.271 189.303,64.751" id="Fill-142"></path>
                <path d="M208.045,78.123 L208.516,78.507 L208.946,78.077 C211.561,75.463 212.955,71.846 212.774,68.156 C212.639,65.325 211.617,62.668 209.824,60.479 C209.28,59.818 208.667,59.205 208.004,58.657 L207.532,58.269 L207.102,58.701 C204.491,61.313 203.092,64.931 203.27,68.62 C203.406,71.454 204.429,74.108 206.222,76.299 C206.768,76.961 207.382,77.576 208.045,78.123" id="Fill-143"></path>
                <path d="M241.089,85.655 C241.636,82.873 241.281,80.049 240.066,77.495 C239.696,76.722 239.247,75.98 238.735,75.288 L238.37,74.799 L237.849,75.116 C234.688,77.026 232.462,80.202 231.751,83.828 C231.204,86.611 231.561,89.433 232.776,91.989 C233.148,92.763 233.596,93.508 234.109,94.198 L234.474,94.683 L234.994,94.369 C238.159,92.457 240.38,89.281 241.089,85.655" id="Fill-144"></path>
                <path d="M247.487,99.514 L247.991,99.334 C251.057,98.243 253.53,95.894 254.779,92.892 C255.74,90.59 255.931,88.093 255.332,85.676 C255.149,84.945 254.893,84.226 254.573,83.54 L254.344,83.054 L253.839,83.235 C250.777,84.326 248.3,86.673 247.049,89.674 C246.087,91.978 245.899,94.474 246.497,96.892 C246.681,97.624 246.937,98.346 247.258,99.031 L247.487,99.514" id="Fill-145"></path>
                <path d="M251.008,114.623 C254.073,113.532 256.546,111.183 257.796,108.182 C258.757,105.879 258.947,103.382 258.349,100.965 C258.166,100.234 257.909,99.515 257.59,98.829 L257.36,98.343 L256.856,98.524 C253.794,99.615 251.316,101.962 250.066,104.963 C249.104,107.267 248.915,109.764 249.514,112.182 C249.697,112.913 249.953,113.635 250.274,114.32 L250.504,114.803 L251.008,114.623" id="Fill-146"></path>
                <path d="M238.494,97.604 C238.264,99.3 238.579,100.987 239.401,102.483 C239.652,102.935 239.949,103.369 240.282,103.766 L240.52,104.045 L240.821,103.837 C242.66,102.574 243.885,100.582 244.184,98.373 C244.414,96.679 244.101,94.991 243.277,93.495 C243.028,93.043 242.732,92.612 242.399,92.214 L242.161,91.932 L241.858,92.141 C240.023,93.404 238.795,95.395 238.494,97.604" id="Fill-147"></path>
                <path d="M237.906,120.862 L238.115,121.31 L238.583,121.147 C241.428,120.155 243.733,117.996 244.908,115.225 C245.812,113.099 246.004,110.788 245.464,108.547 C245.3,107.868 245.066,107.202 244.774,106.564 L244.566,106.112 L244.097,106.277 C241.255,107.268 238.946,109.426 237.77,112.197 C236.865,114.325 236.675,116.635 237.215,118.877 C237.381,119.556 237.612,120.225 237.906,120.862" id="Fill-148"></path>
                <path d="M246.605,131.021 L246.878,131.308 L247.191,131.064 C249.096,129.583 250.293,127.355 250.476,124.951 C250.617,123.106 250.171,121.303 249.188,119.74 C248.89,119.267 248.542,118.821 248.157,118.411 L247.883,118.122 L247.569,118.368 C245.667,119.847 244.467,122.076 244.283,124.48 C244.142,126.326 244.588,128.127 245.571,129.691 C245.871,130.164 246.219,130.613 246.605,131.021" id="Fill-149"></path>
                <path d="M230.211,112.475 L230.537,112.847 L230.941,112.559 C233.393,110.809 235,108.091 235.352,105.101 C235.623,102.807 235.159,100.535 234.013,98.535 C233.665,97.93 233.254,97.355 232.796,96.825 L232.468,96.45 L232.065,96.739 C229.615,98.488 228.004,101.206 227.65,104.196 C227.379,106.492 227.844,108.762 228.99,110.764 C229.34,111.369 229.751,111.946 230.211,112.475" id="Fill-150"></path>
                <path d="M222.088,96.721 C222.438,97.327 222.848,97.904 223.308,98.432 L223.634,98.805 L224.038,98.516 C226.49,96.767 228.097,94.048 228.448,91.059 C228.721,88.765 228.257,86.493 227.11,84.493 C226.762,83.888 226.352,83.313 225.893,82.783 L225.566,82.408 L225.161,82.697 C222.712,84.445 221.101,87.164 220.748,90.154 C220.477,92.449 220.941,94.72 222.088,96.721" id="Fill-151"></path>
                <path d="M216.99,86.142 L217.24,86.367 L217.489,86.14 C218.999,84.764 219.861,82.803 219.858008,80.761 C219.855,79.194 219.358,77.702 218.425,76.447 C218.142,76.068 217.818,75.714 217.467,75.394 L217.216,75.168 L216.968,75.395 C215.46,76.77 214.594,78.731 214.597986,80.773 C214.6,82.341 215.097,83.833 216.031,85.088 C216.315,85.468 216.638,85.823 216.99,86.142" id="Fill-152"></path>
                <path d="M291.755,97.162 L291.566,96.869 L291.256,97.029 C289.382,97.993 287.991,99.713 287.444,101.749 C287.024,103.312 287.116,104.933 287.708,106.436 C287.889,106.89 288.115,107.332 288.381,107.745 L288.569,108.036 L288.878,107.877 C290.754,106.912 292.143,105.191 292.689,103.155 C293.108,101.593 293.018,99.972 292.425,98.47 C292.245,98.015 292.019,97.576 291.755,97.162" id="Fill-153"></path>
                <path d="M273.026,112.526 C273.16,112.863 273.328,113.19 273.524,113.496 L273.664,113.711 L273.893,113.594 C275.282,112.88 276.311,111.605 276.715,110.097 C277.026,108.94 276.958,107.74 276.521,106.627 C276.387,106.29 276.219,105.965 276.024,105.659 L275.883,105.441 L275.654,105.56 C274.267,106.273 273.236,107.548 272.831,109.056 C272.52,110.213 272.588,111.413 273.026,112.526" id="Fill-154"></path>
                <path d="M268.858,127.212 L269.086,127.095 C270.476,126.381 271.504,125.106 271.908,123.598 C272.22,122.441 272.151,121.241 271.713,120.128 C271.58,119.791 271.412,119.466 271.217,119.16 L271.076,118.943 L270.848,119.061 C269.46,119.775 268.43,121.049 268.024,122.557 C267.713,123.714 267.781,124.914 268.22,126.028 C268.354,126.364 268.522,126.691 268.718,126.997 L268.858,127.212" id="Fill-155"></path>
                <path d="M267.746,130.499 L267.629,130.318 L267.438,130.417 C266.279,131.013 265.419,132.077 265.081,133.335 C264.821,134.302 264.878,135.304 265.244,136.233 C265.357,136.514 265.496,136.786 265.66,137.042 L265.776,137.222 L265.967,137.124 C267.127,136.527 267.985,135.463 268.323,134.204 C268.583,133.239 268.526,132.236 268.16,131.308 C268.049,131.027 267.909,130.755 267.746,130.499" id="Fill-156"></path>
                <path d="M282.655,116.291 L282.9,115.993 C284.388,114.179 285.043,111.809 284.699,109.491 C284.438,107.712 283.628,106.099 282.359,104.828 C281.975,104.444 281.55,104.096 281.098,103.79 L280.774,103.575 L280.53,103.875 C279.045,105.686 278.386,108.057 278.729,110.376 C278.99,112.156 279.802,113.768 281.069,115.039 C281.455,115.423 281.881,115.774 282.334,116.078 L282.655,116.291" id="Fill-157"></path>
                <path d="M278.667,126.999 L278.988,127.212 L279.233,126.914 C280.721,125.101 281.376,122.731 281.032,120.412 C280.771,118.633 279.96,117.02 278.692,115.75 C278.308,115.366 277.882,115.017 277.43,114.712 L277.108,114.496 L276.862,114.796 C275.377,116.608 274.719,118.978 275.061,121.297 C275.323,123.078 276.134,124.689 277.402,125.961 C277.788,126.345 278.214,126.695 278.667,126.999" id="Fill-158"></path>
                <path d="M274.374,139.372 L274.695,139.586 L274.94,139.287 C276.428,137.474 277.083,135.104 276.739,132.786 C276.478,131.007 275.667,129.393 274.399,128.123 C274.015,127.739 273.589,127.39 273.137,127.085 L272.815,126.87 L272.57,127.17 C271.084,128.981 270.426,131.352 270.768,133.671 C271.03,135.451 271.841,137.063 273.109,138.334 C273.495,138.718 273.921,139.069 274.374,139.372" id="Fill-159"></path>
                <path d="M270.586,151.092 L270.907,151.305 L271.152,151.007 C272.64,149.194 273.295,146.824 272.952,144.505 C272.69,142.726 271.88,141.113 270.611,139.843 C270.227,139.458 269.802,139.11 269.35,138.805 L269.026,138.589 L268.782,138.889 C267.297,140.701 266.638,143.071 266.981,145.39 C267.242,147.17 268.054,148.782 269.321,150.054 C269.707,150.437 270.134,150.788 270.586,151.092" id="Fill-160"></path>
                <path d="M264.713,161.519 C265.099,161.903 265.525,162.254 265.978,162.558 L266.299,162.771 L266.544,162.473 C268.031,160.66 268.687,158.289 268.343,155.971 C268.081,154.192 267.272,152.578 266.003,151.308 C265.618,150.924 265.193,150.576 264.741,150.27 L264.418,150.056 L264.174,150.355 C262.689,152.166 262.029,154.537 262.372,156.856 C262.634,158.636 263.445,160.248 264.713,161.519" id="Fill-161"></path>
                <path d="M258.608,146.574 C258.814,147.078 259.069,147.567 259.368,148.023 L259.58,148.345 L259.922,148.165 C261.999,147.075 263.525,145.148 264.113,142.879 C264.566,141.139 264.447,139.337 263.774,137.673 C263.57,137.169 263.315,136.682 263.017,136.225 L262.804,135.901 L262.462,136.082 C260.388,137.171 258.858,139.098 258.269,141.367 C257.816,143.109 257.936,144.909 258.608,146.574" id="Fill-162"></path>
                <path d="M259.809,126.674 C258.989,128.276 258.714,130.059 259.01,131.83 C259.101,132.367 259.244,132.899 259.437,133.41 L259.574,133.77 L259.947,133.669 C262.211,133.056 264.119,131.506 265.186,129.419 C266.005,127.818 266.281,126.034 265.985,124.263 C265.896,123.727 265.751,123.197 265.56,122.685 L265.422,122.323 L265.049,122.425 C262.788,123.038 260.876,124.587 259.809,126.674" id="Fill-163"></path>
                <path d="M262.595,119.811 L262.654,120.191 L263.04,120.17 C265.382,120.039 267.57,118.92 269.047,117.099 C270.181,115.703 270.821,114.015 270.899,112.222 C270.922,111.679 270.892,111.13 270.811,110.59 L270.751,110.207 L270.364,110.23 C268.025,110.36 265.834,111.478 264.357,113.298 C263.223,114.695 262.583,116.383 262.505,118.177 C262.483,118.721 262.513,119.271 262.595,119.811" id="Fill-164"></path>
                <path d="M273.459,98.659 L273.075,98.708 C270.751,99.006 268.645,100.277 267.302,102.198 C266.271,103.673 265.753,105.402 265.803,107.197 C265.819,107.741 265.889,108.288 266.01,108.82 L266.097,109.196 L266.48,109.146 C268.806,108.849 270.909,107.576 272.251,105.655 C273.282,104.181 273.801,102.452 273.751,100.658 C273.734,100.114 273.664,99.569 273.545,99.036 L273.459,98.659" id="Fill-165"></path>
                <path d="M225.656,77.815 L226.049,78.278 L226.55,77.933 C229.597,75.839 231.626,72.537 232.121,68.876 C232.503,66.067 231.983,63.269 230.619,60.79 C230.204,60.04 229.713,59.327 229.161,58.666 L228.768,58.199 L228.266,58.546 C225.223,60.639 223.189,63.94 222.691,67.601 C222.309,70.412 222.831,73.208 224.195,75.689 C224.611,76.439 225.103,77.156 225.656,77.815" id="Fill-166"></path>
                <path d="M244.22,70.469 C243.316,73.158 243.305,76.003 244.179,78.695 C244.447,79.51 244.795,80.307 245.215,81.057 L245.514,81.586 L246.07,81.342 C249.456,79.856 252.069,76.994 253.243,73.492 C254.146,70.804 254.16,67.958 253.285,65.267 C253.02,64.453 252.67,63.66 252.253,62.908 L251.953,62.375 L251.396,62.621 C248.014,64.106 245.396,66.967 244.22,70.469" id="Fill-167"></path>
                <path d="M270.382,73.363 L270.191,72.783 L269.596,72.917 C265.991,73.721 262.87,76.023 261.041,79.233 C259.636,81.697 259.075,84.486 259.414,87.296 C259.52,88.148 259.707,88.996 259.974,89.814 L260.165,90.391 L260.759,90.259 C264.367,89.454 267.484,87.15 269.312,83.939 C270.716,81.476 271.278,78.687 270.94,75.878 C270.836,75.028 270.647,74.182 270.382,73.363" id="Fill-168"></path>
                <path d="M286.885,84.682 C286.78,83.831 286.591,82.986 286.326,82.167 L286.136,81.587 L285.541,81.721 C281.937,82.525 278.816,84.827 276.986,88.037 C275.581,90.501 275.021,93.29 275.358,96.1 C275.464,96.952 275.652,97.801 275.919,98.619 L276.11,99.195 L276.704,99.062 C280.313,98.258 283.429,95.954 285.257,92.744 C286.661,90.281 287.224,87.491 286.885,84.682" id="Fill-169"></path>
                <path d="M297.912,124.656 L297.429,124.765 C294.498,125.419 291.96,127.29 290.473,129.9 C289.331,131.904 288.875,134.171 289.15,136.456 C289.236,137.148 289.389,137.838 289.606,138.503 L289.761,138.972 L290.244,138.865 C293.178,138.21 295.712,136.337 297.197,133.727 C298.339,131.724 298.797,129.456 298.521,127.173 C298.437,126.481 298.282,125.794 298.067,125.128 L297.912,124.656" id="Fill-170"></path>
                <path d="M302.295,130.936 L302.45,131.405 L302.933,131.297 C305.867,130.643 308.4,128.77 309.886,126.16 C311.028,124.158 311.485,121.89 311.21,119.606 C311.125,118.914 310.972,118.227 310.757,117.561 L310.601,117.089 L310.117,117.198 C307.187,117.852 304.649,119.724 303.162,122.333 C302.02,124.337 301.565,126.604 301.839,128.889 C301.925,129.581 302.078,130.271 302.295,130.936" id="Fill-171"></path>
                <path d="M303.915,115.789 C304.158,115.343 304.359,114.869 304.516,114.383 L304.624,114.036 L304.29,113.895 C302.273,113.037 299.97,113.069 297.978,113.986 C296.447,114.689 295.213,115.841 294.404,117.314 C294.16,117.762 293.958,118.237 293.804,118.724 L293.696,119.068 L294.029,119.209 C296.049,120.069 298.35,120.035 300.342,119.117 C301.871,118.414 303.108,117.262 303.915,115.789" id="Fill-172"></path>
                <path d="M303.716,109.428 C304.881,108.892 305.822,108.015 306.437,106.893 C306.623,106.554 306.775,106.193 306.895,105.822 L306.977,105.558 L306.723,105.451 C305.187,104.797 303.433,104.822 301.915,105.52 C300.749,106.056 299.809,106.933 299.193,108.055 C299.008,108.396 298.854,108.758 298.736,109.128 L298.654,109.39 L298.907,109.498 C300.446,110.153 302.198,110.127 303.716,109.428" id="Fill-173"></path>
                <path d="M317.43,111.976 L317.138,112.212 C315.369,113.634 314.273,115.75 314.136,118.016 C314.029,119.756 314.478,121.446 315.427,122.904 C315.716,123.345 316.05,123.762 316.419,124.14 L316.681,124.406 L316.973,124.172 C318.744,122.749 319.837,120.633 319.973,118.367 C320.079,116.628 319.632,114.937 318.683,113.48 C318.395,113.039 318.061,112.624 317.692,112.244 L317.43,111.976" id="Fill-174"></path>
                <path d="M119.242,110.957 L120.211,111.101 L120.452,110.151 C121.916,104.375 120.865,98.218 117.572,93.256 C115.049,89.447 111.445,86.611 107.157,85.058 C105.858,84.59 104.504,84.248 103.134,84.034 L102.16,83.888 L101.921,84.84 C100.46,90.61 101.504,96.773 104.794,101.736 C107.319,105.548 110.924,108.38 115.213,109.934 C116.514,110.401 117.872,110.747 119.242,110.957" id="Fill-175"></path>
                <path d="M120.932,68.535 L119.958,68.388 L119.719,69.341 C118.257,75.111 119.302,81.274 122.591,86.237 C125.116,90.049 128.722,92.881 133.01,94.435 C134.312,94.902 135.67,95.248 137.04,95.458 L138.008,95.602 L138.249,94.652 C139.713,88.876 138.662,82.718 135.37,77.757 C132.847,73.948 129.242,71.112 124.955,69.559 C123.656,69.091 122.301,68.749 120.932,68.535" id="Fill-176"></path>
                <path d="M142.376,53.7 L141.402,53.553 L141.163,54.506 C139.702,60.276 140.746,66.439 144.036,71.402 C146.561,75.213 150.166,78.045 154.455,79.6 C155.756,80.067 157.114,80.413 158.484,80.623 L159.453,80.767 L159.693,79.816 C161.157,74.04 160.107,67.883 156.815,62.922 C154.291,59.112 150.687,56.276 146.399,54.724 C145.1,54.256 143.746,53.914 142.376,53.7" id="Fill-177"></path>
                <path d="M174.601,67.134 C175.902,67.601 177.26,67.947 178.631,68.157 L179.599,68.301 L179.84,67.351 C181.304,61.575 180.253,55.417 176.961,50.456 C174.438,46.647 170.833,43.81 166.545,42.258 C165.247,41.79 163.892,41.448 162.523,41.234 L161.548,41.087 L161.31,42.04 C159.848,47.81 160.892,53.973 164.182,58.936 C166.707,62.747 170.312,65.579 174.601,67.134" id="Fill-178"></path>
                <path d="M192.273,59.556 C193.333,60.442 194.488,61.236 195.702,61.906 L196.561,62.375 L197.115,61.566 C200.482,56.649 201.619,50.507 200.241,44.715 C199.187,40.269 196.781,36.364 193.293,33.428 C192.235,32.54 191.082,31.752 189.87,31.078 L189.006,30.604 L188.453,31.416 C185.091,36.328 183.945,42.473 185.321,48.266 C186.376,52.715 188.783,56.617 192.273,59.556" id="Fill-179"></path>
                <path d="M215.736,60.242 L216.443,60.918 L217.189,60.281 C221.718,56.409 224.413,50.774 224.589,44.823 C224.727,40.256 223.42,35.859 220.815,32.117 C220.024,30.985 219.115,29.924 218.12,28.958 L217.409,28.276 L216.664,28.916 C212.141,32.785 209.437,38.421 209.259,44.372 C209.121,48.942 210.43,53.336 213.036,57.081 C213.829,58.213 214.738,59.279 215.736,60.242" id="Fill-180"></path>
                <path d="M236.532,60.388 C237.079,61.657 237.754,62.886 238.536,64.031 L239.092,64.836 L239.95,64.364 C245.171,61.49 248.952,56.518 250.33,50.725 C251.391,46.282 251.002,41.711 249.21,37.518 C248.665,36.25 247.99,35.027 247.211,33.88 L246.653,33.068 L245.794,33.544 C240.58,36.415 236.79,41.386 235.409,47.178 C234.349,51.625 234.74,56.192 236.532,60.388" id="Fill-181"></path>
                <path d="M259.873,51.675 C258.07,55.876 257.678,60.444 258.73,64.884 C259.053,66.227 259.508,67.553 260.083,68.814 L260.493,69.703 L261.421,69.383 C267.054,67.441 271.627,63.186 273.972,57.712 C275.774,53.514 276.169,48.944 275.116,44.508 C274.796,43.164 274.339,41.844 273.768,40.581 L273.357,39.686 L272.428,40.009 C266.802,41.951 262.22,46.203 259.873,51.675" id="Fill-182"></path>
                <path d="M277.027,77.408 L277.263,78.358 L278.233,78.219 C284.132,77.377 289.428,74.064 292.765,69.133 C295.328,65.351 296.581,60.939 296.387,56.383 C296.326,55.004 296.127,53.621 295.805,52.273 L295.57,51.316 L294.598,51.457 C288.705,52.299 283.402,55.608 280.063,60.538 C277.497,64.323 276.249,68.734 276.441,73.292 C276.505,74.673 276.701,76.06 277.027,77.408" id="Fill-183"></path>
                <path d="M294.861,87.993 C294.925,89.374 295.121,90.762 295.447,92.109 L295.682,93.059 L296.653,92.92 C302.552,92.078 307.848,88.765 311.185,83.834 C313.748,80.052 315.001,75.64 314.807,71.084 C314.746,69.705 314.547,68.322 314.225,66.974 L313.989,66.017 L313.018,66.158 C307.125,67.001 301.822,70.309 298.483,75.239 C295.917,79.024 294.669,83.435 294.861,87.993" id="Fill-184"></path>
                <path d="M332.277,91.184 C332.481,89.818 332.548,88.423 332.487,87.037 L332.439,86.054 L331.458,86.007 C325.513,85.714 319.677,87.954 315.461,92.159 C312.223,95.387 310.158,99.48 309.481,103.992 C309.28,105.359 309.209,106.759 309.274,108.143 L309.323,109.121 L310.303,109.17 C316.254,109.465 322.083,107.219 326.297,103.012 C329.533,99.787 331.602,95.693 332.277,91.184" id="Fill-185"></path>
                <path d="M345.78,107.029 C345.983,105.663 346.05,104.268 345.989,102.883 L345.941,101.899 L344.96,101.853 C339.015,101.559 333.18,103.8 328.964,108.005 C325.726,111.232 323.661,115.326 322.983,119.837 C322.782,121.204 322.712,122.604 322.775,123.989 L322.826,124.967 L323.805,125.015 C329.757,125.31 335.585,123.064 339.799,118.858 C343.035,115.632 345.105,111.538 345.78,107.029" id="Fill-186"></path>
                <path d="M355.259,125.472 C355.753,124.618 356.164,123.71 356.488,122.774 L356.715,122.109 L356.076,121.82 C352.207,120.062 347.744,120.015 343.841,121.698 C340.843,122.988 338.397,125.162 336.76,127.979 C336.268,128.834 335.853,129.744 335.53,130.681 L335.307,131.343 L335.944,131.632 C339.817,133.393 344.276,133.434 348.18,131.75 C351.176,130.46 353.625,128.287 355.259,125.472" id="Fill-187"></path>
                <path d="M91.028,144.272 L90.629,144.3 L90.618,144.7 C90.547,147.118 91.506,149.471 93.25,151.15 C94.588,152.439 96.269,153.245 98.108,153.483 C98.665,153.554 99.234,153.571 99.797,153.534 L100.194,153.505 L100.205,153.107 C100.276,150.685 99.316,148.335 97.571,146.657 C96.234,145.368 94.553,144.561 92.715,144.324 C92.158,144.252 91.591,144.236 91.028,144.272" id="Fill-188"></path>
                <path d="M85.136,169.631 L85.533,169.603 L85.545,169.204 C85.615,166.784 84.655,164.433 82.911,162.755 C81.573,161.466 79.892,160.659 78.054,160.422 C77.497,160.35 76.93,160.334 76.367,160.37 L75.968,160.398 L75.957,160.797 C75.887,163.216 76.845,165.569 78.589,167.248 C79.927,168.537 81.608,169.343 83.447,169.581 C84.004,169.652 84.574,169.669 85.136,169.631" id="Fill-189"></path>
                <path d="M117.969,161.026 C116.02,161.134 114.195,161.85 112.697,163.096 C112.244,163.474 111.826,163.899 111.451,164.358 L111.187,164.685 L111.486,164.979 C113.298,166.764 115.796,167.709 118.336,167.568 C120.287,167.46 122.109,166.743 123.608,165.497 C124.062,165.118 124.483,164.692 124.856,164.232 L125.118,163.906 L124.819,163.612 C123.006,161.826 120.509,160.883 117.969,161.026" id="Fill-190"></path>
                <path d="M111.726,151.722 C109.914,150.994 107.958,150.872 106.074,151.368 C105.503,151.518 104.944,151.727 104.411,151.984 L104.032,152.169 L104.18,152.562 C105.067,154.946 106.93,156.859 109.292,157.806 C111.105,158.533 113.06,158.653 114.945,158.159 C115.516,158.007 116.078,157.799 116.61,157.54 L116.986,157.355 L116.84,156.963 C115.952,154.577 114.088,152.667 111.726,151.722" id="Fill-191"></path>
                <path d="M105.312,143.628 C103.997,143.1 102.578,143.012 101.212,143.371 C100.797,143.48 100.392,143.632 100.004,143.819 L99.731,143.953 L99.837,144.238 C100.481,145.967 101.833,147.355 103.546,148.042 C104.861,148.569 106.279,148.657 107.648,148.298 C108.062,148.188 108.469,148.037 108.856,147.849 L109.128,147.715 L109.022,147.431 C108.378,145.699 107.025,144.314 105.312,143.628" id="Fill-192"></path>
                <path d="M102.07,140.889 C102.408,140.799 102.741,140.676 103.057,140.522 L103.279,140.413 L103.192,140.181 C102.667,138.767 101.563,137.637 100.164,137.077 C99.091,136.646 97.933,136.574 96.817,136.868 C96.48,136.956 96.148,137.08 95.832,137.232 L95.608,137.342 L95.695,137.575 C96.221,138.986 97.324,140.119 98.723,140.68 C99.796,141.11 100.954,141.182 102.07,140.889" id="Fill-193"></path>
                <path d="M60.948,205.284 C60.132,205.294 59.312,205.385 58.51,205.55 L57.941,205.67 L58.006,206.247 C58.391,209.742 60.244,212.934 63.09,215 C65.275,216.586 67.856,217.407 70.55,217.38 C71.367,217.369 72.19,217.28 72.991,217.112 L73.557,216.992 L73.493,216.416 C73.108,212.918 71.253,209.729 68.405,207.665 C66.222,206.079 63.641,205.256 60.948,205.284" id="Fill-194"></path>
                <path d="M79.012,204.346 C81.687,204.72 84.35,204.233 86.716,202.944 C87.432,202.551 88.116,202.085 88.746,201.561 L89.188,201.189 L88.862,200.711 C86.879,197.803 83.744,195.859 80.26,195.374 C77.588,195 74.922,195.485 72.558,196.775 C71.843,197.166 71.162,197.632 70.531,198.154 L70.085,198.528 L70.413,199.006 C72.394,201.911 75.529,203.86 79.012,204.346" id="Fill-195"></path>
                <path d="M16.531,237.101 C20.862,236.471 24.787,234.505 27.884,231.426 C28.819,230.49 29.674,229.455 30.415,228.355 L30.935,227.575 L30.211,226.978 C25.807,223.352 20.045,221.748 14.405,222.573 C10.076,223.203 6.149,225.166 3.054,228.244 C2.118,229.179 1.269,230.212 0.524,231.31 L-2.84217094e-14,232.094 L0.727,232.69 C5.127,236.311 10.89,237.923 16.531,237.101" id="Fill-196"></path>
                <path d="M14.672,214.931 C18.921,215.981 23.297,215.642 27.328,213.959 C28.547,213.445 29.729,212.809 30.831,212.07 L31.607,211.544 L31.16,210.718 C28.45,205.699 23.72,202.039 18.186,200.675 C13.94,199.624 9.561,199.96 5.533,201.643 C4.315,202.155 3.138,202.791 2.034,203.528 L1.253,204.056 L1.701,204.882 C4.409,209.896 9.138,213.563 14.672,214.931" id="Fill-197"></path>
                <path d="M19.917,193.882 C24.166,194.933 28.542,194.594 32.572,192.911 C33.792,192.397 34.973,191.762 36.075,191.022 L36.851,190.496 L36.405,189.67 C33.695,184.65 28.965,180.991 23.431,179.626 C19.184,178.576 14.806,178.912 10.778,180.595 C9.559,181.106 8.383,181.743 7.279,182.479 L6.497,183.007 L6.946,183.834 C9.654,188.848 14.383,192.515 19.917,193.882" id="Fill-198"></path>
                <path d="M25.821,173.731 C30.07,174.782 34.446,174.442 38.477,172.76 C39.696,172.245 40.878,171.61 41.98,170.87 L42.755,170.345 L42.31,169.518 C39.6,164.499 34.87,160.839 29.335,159.475 C25.088,158.424 20.711,158.761 16.683,160.444 C15.463,160.955 14.287,161.592 13.183,162.328 L12.401,162.856 L12.85,163.682 C15.558,168.696 20.287,172.364 25.821,173.731" id="Fill-199"></path>
                <path d="M30.745,149.162 C34.534,151.491 38.875,152.512 43.296,152.127 C44.635,152.005 45.975,151.754 47.27,151.378 L48.184,151.109 L48.006,150.171 C46.932,144.475 43.482,139.474 38.545,136.445 C34.758,134.118 30.416,133.093 25.997,133.48 C24.659,133.599 23.324,133.852 22.028,134.224 L21.108,134.494 L21.288,135.432 C22.363,141.122 25.809,146.131 30.745,149.162" id="Fill-200"></path>
                <path d="M43.313,125.633 C46.68,128.539 50.801,130.244 55.227,130.572 C56.568,130.666 57.931,130.634 59.269,130.471 L60.214,130.35 L60.19,129.397 C60.042,123.603 57.439,118.112 53.051,114.331 C49.686,111.427 45.565,109.719 41.141,109.392 C39.801,109.295 38.443,109.331 37.104,109.491 L36.153,109.61 L36.18,110.565 C36.328,116.353 38.927,121.85 43.313,125.633" id="Fill-201"></path>
                <path d="M71.988,109.214 C73.325,109.36 74.688,109.379 76.032,109.266 L76.98,109.182 L76.992,108.228 C77.065,102.432 74.671,96.848 70.43,92.903 C67.179,89.873 63.125,88.01 58.717,87.515 C57.382,87.367 56.023,87.352 54.679,87.46 L53.724,87.543 L53.714,88.498 C53.643,94.288 56.031,99.88 60.271,103.827 C63.524,106.858 67.578,108.718 71.988,109.214" id="Fill-202"></path>
                <path d="M87.502,92.372 C88.776,92.729 90.097,92.967 91.42,93.075 L92.354,93.146 L92.519,92.222 C93.524,86.606 92.1,80.798 88.619,76.285 C85.949,72.819 82.314,70.356 78.114,69.166 C76.841,68.807 75.525,68.573 74.202,68.462 L73.262,68.388 L73.099,69.314 C72.096,74.924 73.514,80.738 76.994,85.253 C79.665,88.721 83.3,91.18 87.502,92.372" id="Fill-203"></path>
                <path d="M273.097,217.333 L273.739,217.523 C274.651,217.787 275.595,217.964 276.537,218.05 C279.649,218.321 282.705,217.602 285.373,215.963 C288.848,213.829 291.274,210.303 292.03,206.298 L292.156,205.637 L291.509,205.448 C290.597,205.185 289.657,205.007 288.715,204.923 C285.605,204.651 282.548,205.372 279.882,207.011 C276.406,209.142 273.979,212.664 273.222,216.673 L273.097,217.333" id="Fill-204"></path>
                <path d="M275.35,199.328 L275.253,199.838 L275.751,199.985 C276.456,200.19 277.186,200.327 277.915,200.393 C280.323,200.603 282.688,200.047 284.751,198.778 C287.44,197.128 289.316,194.399 289.902,191.301 L290,190.789 L289.499,190.642 C288.793,190.44 288.066,190.302 287.337,190.237 C284.931,190.026 282.566,190.584 280.503,191.852 C277.815,193.501 275.936,196.225 275.35,199.328" id="Fill-205"></path>
                <path d="M279.138,185.617 L279.041,186.127 L279.538,186.274 C280.244,186.479 280.974,186.616 281.703,186.682 C284.111,186.892 286.476,186.335 288.539,185.067 C291.228,183.416 293.105,180.688 293.691,177.589 L293.788,177.078 L293.287,176.932 C292.581,176.729 291.854,176.591 291.125,176.526 C288.719,176.315 286.354,176.873 284.291,178.141 C281.602,179.79 279.723,182.515 279.138,185.617" id="Fill-206"></path>
                <path d="M284.188,171.906 L284.092,172.416 L284.589,172.563 C285.294,172.768 286.024,172.905 286.754,172.971 C289.161,173.181 291.525,172.624 293.59,171.356 C296.278,169.705 298.155,166.977 298.74,163.878 L298.838,163.367 L298.338,163.22 C297.631,163.017 296.904,162.879 296.176,162.815 C293.769,162.604 291.404,163.162 289.342,164.43 C286.652,166.079 284.774,168.804 284.188,171.906" id="Fill-207"></path>
                <path d="M294.43,154.054 C292.429,154.91 290.872,156.58 290.161,158.639 L290.044,158.977 L290.369,159.128 C290.83,159.338 291.315,159.505 291.806,159.623 C293.428,160.008 295.098,159.866 296.633,159.208 C298.634,158.351 300.189,156.678 300.899,154.621 L301.018,154.282 L300.691,154.132 C300.23,153.923 299.747,153.755 299.256,153.638 C297.635,153.252 295.964,153.396 294.43,154.054" id="Fill-208"></path>
                <path d="M303.536,145.447 C301.448,146.059 299.705,147.534 298.755,149.494 L298.599,149.817 L298.903,150.004 C299.336,150.268 299.798,150.491 300.272,150.666 C301.837,151.241 303.511,151.297 305.114,150.826 C307.202,150.211 308.944,148.734 309.894,146.776 L310.051,146.453 L309.744,146.265 C309.311,146.003 308.852,145.78 308.378,145.605 C306.814,145.03 305.138,144.975 303.536,145.447" id="Fill-209"></path>
                <path d="M319.886,141.276 C318.647,140.162 317.11,139.49 315.448,139.333 C313.281,139.128 311.116,139.851 309.507,141.319 L309.242,141.56 L309.456,141.847 C309.76,142.253 310.106,142.63 310.481,142.97 C311.721,144.083 313.255,144.757 314.919,144.913 C317.085,145.118 319.251,144.391 320.858,142.926 L321.125,142.684 L320.909,142.396 C320.605,141.992 320.261,141.614 319.886,141.276" id="Fill-210"></path>
                <path d="M318.879,148.693 L319.109,149.002 C319.437,149.439 319.809,149.846 320.213,150.211 C321.549,151.411 323.201,152.136 324.993,152.305 C327.326,152.525 329.659,151.743 331.391,150.164 L331.677,149.904 L331.445,149.593 C331.116,149.158 330.746,148.751 330.343,148.387 C329.008,147.187 327.354,146.463 325.564,146.294 C323.23,146.073 320.898,146.852 319.164,148.432 L318.879,148.693" id="Fill-211"></path>
                <path d="M297.147,199.351 C298.639,198.117 299.545,196.297 299.634,194.363 L299.649,194.044 L299.332,193.997 C298.886,193.935 298.432,193.914 297.983,193.937 C296.503,194.016 295.113,194.559 293.969,195.507 C292.476,196.741 291.568,198.558 291.48,200.494 L291.465,200.813 L291.779,200.86 C292.227,200.923 292.682,200.944 293.131,200.921 C294.612,200.842 296.001,200.3 297.147,199.351" id="Fill-212"></path>
                <path d="M302.159,183.659 L302.175,183.34 L301.858,183.294 C301.411,183.231 300.957,183.21 300.509,183.233 C299.027,183.312 297.639,183.855 296.494,184.803 C295.001,186.037 294.094,187.855 294.005,189.791 L293.99,190.109 L294.305,190.156 C294.751,190.22 295.207,190.24 295.655,190.217 C297.138,190.138 298.526,189.596 299.672,188.648 C301.164,187.413 302.07,185.593 302.159,183.659" id="Fill-213"></path>
                <path d="M304.818,169.644 L304.834,169.325 L304.517,169.279 C304.07,169.217 303.616,169.195 303.168,169.219 C301.688,169.298 300.298,169.84 299.153,170.788 C297.66,172.022 296.753,173.84 296.664,175.776 L296.649,176.095 L296.964,176.141 C297.411,176.205 297.866,176.225 298.316,176.203 C299.797,176.123 301.187,175.581 302.331,174.633 C303.823,173.398 304.73,171.578 304.818,169.644" id="Fill-214"></path>
                <path d="M334.905,142.983 C334.717,142.513 334.484,142.058 334.211,141.634 C333.307,140.234 332.001,139.182 330.438,138.596 C328.4,137.829 326.121,137.96 324.184,138.954 L323.865,139.118 L323.995,139.451 C324.183,139.922 324.417,140.377 324.691,140.803 C325.596,142.203 326.899,143.255 328.464,143.842 C330.501,144.607 332.782,144.474 334.718,143.481 L335.037,143.318 L334.905,142.983" id="Fill-215"></path>
                <path d="M389.745,151.832 L389.598,152.774 L390.52,153.015 C391.825,153.349 393.173,153.557 394.516,153.637 C398.946,153.881 403.253,152.723 406.966,150.275 C411.803,147.089 415.089,141.973 415.983,136.252 L416.132,135.308 L415.204,135.068 C413.897,134.737 412.555,134.526 411.214,134.45 C406.785,134.203 402.478,135.366 398.767,137.812 C393.928,140.995 390.639,146.105 389.745,151.832" id="Fill-216"></path>
                <path d="M374.536,135.236 L375.481,135.356 C376.819,135.521 378.182,135.556 379.524,135.462 C383.949,135.138 388.072,133.437 391.441,130.535 C395.831,126.756 398.435,121.262 398.589,115.474 L398.617,114.518 L397.666,114.398 C396.327,114.238 394.969,114.2 393.629,114.296 C389.205,114.619 385.082,116.323 381.715,119.224 C377.323,123 374.715,128.488 374.562,134.282 L374.536,135.236" id="Fill-217"></path>
                <path d="M355.396,111.299 L356.324,111.427 C357.64,111.602 358.981,111.649 360.302,111.57 C364.66,111.293 368.734,109.66 372.078,106.836 C376.435,103.16 379.051,97.777 379.259,92.082 L379.295,91.142 L378.36,91.015 C377.044,90.845 375.707,90.794 374.388,90.875 C370.031,91.15 365.957,92.787 362.615,95.61 C358.257,99.284 355.637,104.66 355.43,110.361 L355.396,111.299" id="Fill-218"></path>
                <path d="M104.367,76.172 C105.613,76.615 106.915,76.943 108.227,77.14 L109.154,77.275 L109.382,76.365 C110.768,70.831 109.744,64.939 106.578,60.198 C104.152,56.558 100.693,53.853 96.584,52.379 C95.339,51.934 94.042,51.611 92.73,51.41 L91.796,51.272 L91.57,52.185 C90.188,57.714 91.205,63.611 94.368,68.353 C96.796,71.995 100.256,74.696 104.367,76.172" id="Fill-219"></path>
                <path d="M123.069,61.141 C124.289,61.655 125.569,62.057 126.868,62.329 L127.786,62.518 L128.066,61.621 C129.767,56.176 129.083,50.235 126.195,45.321 C123.982,41.548 120.684,38.648 116.667,36.94 C115.449,36.425 114.172,36.028 112.874,35.751 L111.951,35.56 L111.672,36.459 C109.974,41.898 110.651,47.844 113.537,52.761 C115.752,56.536 119.05,59.431 123.069,61.141" id="Fill-220"></path>
                <path d="M144.225,44.708 C145.396,45.326 146.636,45.838 147.906,46.223 L148.804,46.49 L149.161,45.621 C151.33,40.345 151.166,34.367 148.716,29.22 C146.84,25.268 143.807,22.093 139.954,20.042 C138.786,19.422 137.548,18.915 136.279,18.527 L135.376,18.256 L135.02,19.127 C132.855,24.398 133.012,30.381 135.459,35.529 C137.337,39.483 140.371,42.655 144.225,44.708" id="Fill-221"></path>
                <path d="M170.751,34.972 C171.81,35.765 172.955,36.465 174.149,37.044 L174.994,37.449 L175.483,36.647 C178.451,31.776 179.227,25.846 177.614,20.378 C176.38,16.182 173.883,12.57 170.399,9.94 C169.342,9.145 168.199,8.451 167.006,7.869 L166.157,7.459 L165.67,8.264 C162.705,13.131 161.922,19.063 163.531,24.532 C164.766,28.731 167.266,32.339 170.751,34.972" id="Fill-222"></path>
                <path d="M199.676,27.888 C200.572,28.862 201.569,29.76 202.638,30.547 L203.395,31.099 L204.022,30.401 C207.831,26.154 209.677,20.466 209.092,14.796 C208.647,10.444 206.851,6.437 203.906,3.215 C203.013,2.24 202.017,1.348 200.95,0.557 L200.19,0 L199.564,0.702 C195.759,4.944 193.904,10.634 194.487,16.305 C194.933,20.659 196.731,24.663 199.676,27.888" id="Fill-223"></path>
                <path d="M339.28,92.135 L339.445,93.059 L340.38,92.988 C341.703,92.88 343.024,92.642 344.298,92.285 C348.499,91.093 352.135,88.634 354.806,85.166 C358.286,80.651 359.703,74.837 358.701,69.227 L358.538,68.301 L357.598,68.375 C356.274,68.486 354.958,68.72 353.686,69.079 C349.485,70.269 345.851,72.732 343.182,76.198 C339.699,80.711 338.276,86.519 339.28,92.135" id="Fill-224"></path>
                <path d="M322.646,77.188 L323.572,77.053 C324.885,76.856 326.186,76.528 327.433,76.085 C331.544,74.609 335.003,71.908 337.432,68.266 C340.595,63.524 341.612,57.627 340.23,52.099 L340.003,51.185 L339.07,51.323 C337.758,51.524 336.461,51.848 335.216,52.292 C331.107,53.766 327.648,56.472 325.222,60.111 C322.056,64.852 321.032,70.744 322.417,76.278 L322.646,77.188" id="Fill-225"></path>
                <path d="M304.014,62.431 L304.932,62.243 C306.231,61.97 307.511,61.568 308.731,61.055 C312.749,59.344 316.048,56.449 318.263,52.674 C321.149,47.758 321.825,41.812 320.128,36.372 L319.85,35.474 L318.926,35.664 C317.628,35.941 316.351,36.338 315.133,36.853 C311.116,38.561 307.818,41.461 305.605,45.234 C302.717,50.148 302.033,56.09 303.734,61.535 L304.014,62.431" id="Fill-226"></path>
                <path d="M282.995,46.403 L283.894,46.135 C285.164,45.751 286.404,45.239 287.574,44.621 C291.429,42.568 294.463,39.396 296.341,35.442 C298.788,30.294 298.944,24.311 296.779,19.04 L296.424,18.169 L295.521,18.44 C294.252,18.828 293.014,19.335 291.846,19.955 C287.992,22.006 284.96,25.181 283.083,29.133 C280.634,34.28 280.47,40.258 282.639,45.535 L282.995,46.403" id="Fill-227"></path>
                <path d="M256.806,37.362 L257.65,36.957 C258.845,36.378 259.989,35.678 261.049,34.885 C264.534,32.252 267.033,28.644 268.269,24.445 C269.878,18.976 269.095,13.044 266.131,8.177 L265.643,7.372 L264.793,7.782 C263.601,8.364 262.458,9.058 261.401,9.853 C257.917,12.483 255.419,16.095 254.186,20.291 C252.573,25.759 253.349,31.689 256.317,36.56 L256.806,37.362" id="Fill-228"></path>
                <path d="M229.063,31.024 L229.841,30.502 C230.94,29.757 231.972,28.9 232.905,27.962 C235.976,24.855 237.93,20.926 238.548,16.592 C239.354,10.949 237.726,5.191 234.092,0.801 L233.493,0.075 L232.711,0.602 C231.614,1.35 230.584,2.202 229.652,3.14 C226.583,6.244 224.631,10.178 224.014,14.508 C223.205,20.151 224.825,25.908 228.464,30.301 L229.063,31.024" id="Fill-229"></path>
            </g>
        </g>
    </g>
</svg>