<?xml version="1.0" encoding="UTF-8"?>
<svg width="600px" height="575px" viewBox="0 0 600 575" version="1.1" xmlns="http://www.w3.org/2000/svg" xmlns:xlink="http://www.w3.org/1999/xlink">
    <!-- Generator: Sketch 64 (93537) - https://sketch.com -->
    <title>Tree</title>
    <desc>Created with Sketch.</desc>
    <g id="Page-1" stroke="none" stroke-width="1" fill="none" fill-rule="evenodd">
        <g id="LogoMain" transform="translate(-200.000000, -144.000000)" fill="#478E6E">
            <g id="Tree-&amp;-text" transform="translate(200.000000, 144.000000)">
                <g id="Tree">
                    <path d="M571.12799,274.633876 L526.616551,261.522259 L526.257121,261.432335 L498.258526,256.672538 L497.899096,256.582614 L497.539667,256.582614 L432.656437,263.767888 L432.297007,263.85658 C432.117292,263.85658 431.938808,263.947736 431.669236,264.036428 L357.542999,304.360439 C357.183569,304.540287 356.735512,304.899982 356.555798,305.258445 L356.376083,305.61814 L327.389056,378.541346 C327.300429,378.63127 327.210572,378.811117 327.210572,378.990965 L327.210572,379.617967 L339.863239,545 L249.1343,545 L268.069602,381.954752 L267.980975,381.954752 C268.069602,381.774905 268.069602,381.505133 268.069602,381.325286 C267.980975,381.14667 267.980975,380.876899 267.889887,380.697052 L225.622422,276.070192 C225.443938,275.621805 225.174366,275.352034 224.814936,275.083495 L222.840534,273.825795 C222.481104,273.556023 222.033048,273.467331 221.674849,273.467331 C221.315419,273.467331 220.95599,273.556023 220.597791,273.735871 L160.649335,307.234303 L160.289905,307.593998 C160.021564,307.862537 159.662134,308.222232 159.573507,308.580695 L145.033834,344.774375 L112.368807,384.289073 L139.829488,344.594527 C140.368633,343.875138 140.45849,343.69529 139.470058,336.242708 L153.470587,296.636855 C153.740159,296.007388 153.649071,295.109383 153.201014,294.481149 C152.752958,293.852915 152.034099,293.403296 151.226612,293.403296 L151.048128,293.403296 L106.176029,299.690565 L105.727972,299.780489 L73.6008584,312.532411 C80.5998917,308.850466 87.4204411,305.168521 92.5361608,302.384581 C97.2025933,299.959105 99.6250516,298.612713 101.06154,297.714707 L159.214078,283.883701 C159.48365,283.793777 159.662134,283.705085 159.841849,283.705085 L198.790743,261.880722 C199.507141,261.432335 199.956428,260.714178 199.956428,259.816172 C200.046285,259.006859 199.596998,258.200009 198.879369,257.75039 L151.226612,225.77943 C151.136755,225.688274 150.95704,225.599582 150.688699,225.508427 C150.508984,225.419735 150.149554,225.419735 149.881213,225.419735 L149.701498,225.419735 L65.5235358,232.873549 C65.3450518,232.873549 65.1653369,232.873549 64.985622,232.963472 C64.8059071,233.053396 64.5363348,233.142088 64.3566199,233.321935 L63.9984211,233.501783 L35.9985951,260.623022 L8,272.119708 L8.35819886,271.849936 C14.1016898,268.347839 19.7553233,264.934433 23.9724686,262.330341 C28.7287585,259.366554 30.7930179,258.200009 31.5118774,257.480619 L31.600504,257.390696 L63.2795615,220.210318 C63.8187062,219.672008 64.0882785,218.862694 63.9085636,218.054613 C63.7288487,217.336455 63.1897041,216.708221 62.5619329,216.348526 L9.61497216,187.699815 L73.4211435,210.87057 L73.4211435,210.780646 C73.6907159,210.960494 74.0489147,210.960494 74.3184871,210.960494 L74.4982019,210.960494 L137.227315,205.392615 L161.726393,205.841001 C162.713594,205.841001 163.52108,205.392615 163.88051,204.673225 C164.329797,203.866375 164.329797,202.967138 163.88051,202.24898 L142.253177,163.541131 L142.16332,163.45244 C141.893747,163.002821 141.44446,162.643126 140.996404,162.463279 L105.09897,148.00527 L83.3817797,121.780804 C107.253087,140.730071 107.342944,140.819995 107.702374,140.909919 L166.304199,163.45244 L194.482509,213.924281 C194.571136,214.102897 194.750851,214.372668 195.020423,214.552515 L195.200138,214.732363 L226.429908,235.657488 C226.789338,235.837336 227.147537,235.927259 227.596824,236.015951 L264.032172,259.99602 L293.017968,328.249352 C293.467255,329.147358 294.274741,329.685668 295.261942,329.685668 C296.249143,329.685668 297.056629,329.147358 297.505916,328.249352 L310.877443,294.391225 L310.9673,294.301302 L311.057157,293.762991 L318.864908,229.819838 C318.864908,229.280295 318.773819,228.831909 318.595335,228.38229 L288.351535,174.408351 L288.261678,174.228504 C288.083194,173.959964 287.813621,173.690193 287.544049,173.510346 L287.094762,173.330498 L250.84036,158.692642 L207.674321,122.94858 L251.557989,152.765067 L252.007276,153.034839 L252.18576,153.12353 L309.26247,172.972035 C309.532043,173.060727 309.800384,173.150651 310.068726,173.150651 C310.697728,173.150651 311.415356,172.882111 311.864643,172.342569 C312.3127,171.804259 312.492415,171.176025 312.492415,170.456635 L306.838781,118.996864 C306.838781,118.817017 306.748924,118.637169 306.748924,118.458554 C306.660297,118.278706 306.480582,117.920243 306.300867,117.740396 L277.582182,79.4821659 C277.582182,79.3023185 277.493555,79.0325473 277.493555,78.8526999 L269.50609,52 L278.480756,71.8485047 C278.65924,72.117044 278.749098,72.2968914 279.01867,72.5666626 L315.094588,115.135072 C315.542644,115.674614 316.08302,115.943153 316.710791,115.943153 L316.979132,115.943153 L319.672394,115.674614 C320.569737,115.494767 321.377223,114.775377 321.556938,113.877372 L325.863941,88.910606 L342.107213,59.8135087 L330.889803,91.5159301 C330.799946,91.6957775 330.710088,91.9643169 330.710088,92.234088 L328.466114,123.038504 L328.466114,123.488123 L335.466378,187.609892 C335.556236,188.777668 336.633294,189.765597 337.890068,189.765597 C338.78618,189.765597 339.684755,189.137363 340.132811,188.32805 L360.953889,138.575598 L361.042515,138.215903 L379.708245,79.9305527 C381.234591,78.5841606 384.106336,75.440526 390.477598,68.5250227 C393.17086,65.6511592 396.042605,62.5075247 398.914351,59.4550456 L384.64425,82.6245687 L384.555624,82.8943398 L384.375909,83.2540347 L372.081441,129.862852 C371.811868,130.582242 371.991583,131.390323 372.43964,131.929866 C372.887696,132.5581 373.606555,132.916563 374.414042,132.916563 C374.77224,132.916563 375.311385,132.827871 375.670815,132.5581 L424.489257,104.627547 L442.527216,111.274511 L424.310773,111.632974 C423.861486,111.632974 423.502056,111.812822 423.054,111.991437 L385.092306,136.419892 L384.734108,136.688432 C384.465766,136.958203 384.286051,137.227974 384.196194,137.497745 L355.838169,205.03292 L355.747081,205.392615 L355.658454,205.661154 L348.119045,268.167991 C348.030419,268.976073 348.389848,269.784155 349.01762,270.233773 C349.377049,270.413621 349.825106,270.593468 350.274393,270.593468 C350.632592,270.593468 350.990791,270.502312 351.35022,270.322465 L352.966423,269.425692 L392.631715,246.973095 C393.349344,246.883171 393.978346,246.434784 394.247918,245.80655 L416.323308,202.159056 L506.692817,159.500723 L429.604977,208.445094 L429.245547,208.804788 C428.977205,208.983404 428.707633,209.434254 428.619006,209.792717 L416.23345,240.866905 L416.144824,241.04552 C415.963878,241.763678 416.144824,242.572992 416.59288,243.201226 C417.040936,243.740768 417.758565,244.099231 418.477424,244.099231 L418.745766,244.099231 L502.117473,234.93933 C502.475672,234.93933 502.744013,234.849407 503.013585,234.669559 L503.373015,234.399788 L545.192424,198.925498 L581,192.10115 L549.141228,206.649083 C548.961513,206.739007 548.783029,206.82893 548.602083,207.008778 L505.885331,243.29115 C505.167702,243.82946 504.89813,244.728697 505.167702,245.535547 C505.437274,246.34486 506.154903,246.973095 506.962389,247.063018 L534.872358,250.834887 L571.12799,274.633876 Z" id="Fill-4"></path>
                    <path d="M378.882601,550 L155.118631,550 C152.33516,550 150,547.788298 150,545.0437 C150,542.301529 152.33516,540 155.118631,540 L378.882601,540 C381.754749,540 384,542.301529 384,545.0437 C384,547.788298 381.754749,550 378.882601,550 Z" id="Fill-5"></path>
                    <path d="M433.995447,550 L402.094029,550 C399.323936,550 397,547.788298 397,545.0437 C397,542.301529 399.323936,540 402.094029,540 L433.995447,540 C436.766766,540 439,542.301529 439,545.0437 C439,547.788298 436.766766,550 433.995447,550 Z" id="Fill-6"></path>
                    <path d="M115.067998,565 C112.26872,565 110,567.23828 110,570.001214 C110,572.76172 112.26872,575 115.067998,575 L473.930771,575 C476.730049,575 479,572.76172 479,570.001214 C479,567.23828 476.730049,565 473.930771,565 L115.067998,565 Z" id="Fill-7"></path>
                    <path d="M274.676462,249 C274.676462,249 259.161347,245.385755 251.056753,233.51179 C242.950913,221.637825 245.323476,206 245.323476,206 C245.323476,206 260.83859,209.614245 268.94443,221.48821 C277.049024,233.362175 274.676462,249 274.676462,249 Z" id="Fill-8"></path>
                    <path d="M197.252944,93 C197.252944,93 186.864491,81.2544701 187.00134,66.8953834 C187.13819,52.5362968 197.748267,41 197.748267,41 C197.748267,41 208.135509,52.7455299 207.99866,67.1046166 C207.86181,81.4637032 197.252944,93 197.252944,93 Z" id="Fill-9"></path>
                    <path d="M345.251745,159 C345.251745,159 334.864491,147.255429 335.00134,132.896 C335.136979,118.535333 345.747068,107 345.747068,107 C345.747068,107 356.134322,118.744571 355.998683,133.105238 C355.861833,147.464667 345.251745,159 345.251745,159 Z" id="Fill-10"></path>
                    <path d="M303.65283,258 C303.65283,258 291.956854,250.462871 288.835581,238.312316 C285.713052,226.161761 292.347641,214 292.347641,214 C292.347641,214 304.04236,221.537129 307.164889,233.687684 C310.286162,245.838239 303.65283,258 303.65283,258 Z" id="Fill-11"></path>
                    <path d="M263,191.928699 C263,191.928699 249.214066,193.152622 239.272586,185.458679 C229.331106,177.765987 227,164.071318 227,164.071318 C227,164.071318 240.785934,162.847395 250.728661,170.540087 C260.668894,178.232779 263,191.928699 263,191.928699 Z" id="Fill-12"></path>
                    <path d="M53,185.928868 C53,185.928868 39.2132964,187.151492 29.2721607,179.459098 C19.3310249,171.766704 17,158.071315 17,158.071315 C17,158.071315 30.7854571,156.84744 40.7278393,164.539834 C50.6677285,172.233479 53,185.928868 53,185.928868 Z" id="Fill-13"></path>
                    <path d="M208.957536,200 C208.957536,200 187.3207,185.953309 181.545347,163.308797 C175.769994,140.666757 188.042464,118 188.042464,118 C188.042464,118 209.6793,132.046691 215.454653,154.691203 C221.230006,177.334479 208.957536,200 208.957536,200 Z" id="Fill-14"></path>
                    <path d="M288,277 C283.581905,277 280,273.418095 280,269 C280,264.581905 283.581905,261 288,261 C292.418095,261 296,264.581905 296,269 C296,273.418095 292.418095,277 288,277 Z" id="Fill-15"></path>
                    <path d="M224.999382,226 C220.580946,226 217,222.417818 217,217.999382 C217,213.580946 220.580946,210 224.999382,210 C229.419054,210 233,213.580946 233,217.999382 C233,222.417818 229.419054,226 224.999382,226 Z" id="Fill-16"></path>
                    <path d="M275.998765,208 C271.581905,208 268,204.419054 268,200.000618 C268,195.582182 271.581905,192 275.998765,192 C280.418095,192 284,195.582182 284,200.000618 C284,204.419054 280.418095,208 275.998765,208 Z" id="Fill-17"></path>
                    <path d="M271.676144,148 C271.676144,148 256.162442,144.385651 248.056688,132.511344 C239.950935,120.638275 242.323472,105 242.323472,105 C242.323472,105 257.83842,108.613113 265.944173,120.487419 C274.049927,132.361725 271.676144,148 271.676144,148 Z" id="Fill-18"></path>
                    <path d="M318.676528,98 C318.676528,98 303.16158,94.3857545 295.055827,82.5117897 C286.950073,70.6378249 289.323856,55 289.323856,55 C289.323856,55 304.837558,58.6142455 312.943312,70.4882103 C321.049065,82.3621751 318.676528,98 318.676528,98 Z" id="Fill-19"></path>
                    <path d="M375.676457,76 C375.676457,76 360.161096,72.3856506 352.055126,60.5113444 C343.949157,48.6370381 346.32425,33 346.32425,33 C346.32425,33 361.838364,36.6131129 369.944334,48.4874191 C378.049057,60.3617254 375.676457,76 375.676457,76 Z" id="Fill-20"></path>
                    <path d="M263.676134,58 C263.676134,58 248.161987,54.3857545 240.056001,42.5117897 C231.950014,30.6378249 234.323866,15 234.323866,15 C234.323866,15 249.838013,18.6142455 257.943999,30.4882103 C266.049986,42.3621751 263.676134,58 263.676134,58 Z" id="Fill-21"></path>
                    <path d="M300.652727,162 C300.652727,162 288.957733,154.461626 285.83513,142.312316 C282.713784,130.161761 289.347273,118 289.347273,118 C289.347273,118 301.042267,125.537129 304.16487,137.687684 C307.286216,149.836993 300.652727,162 300.652727,162 Z" id="Fill-22"></path>
                    <path d="M265,88.9288676 C265,88.9288676 251.212819,90.1514994 241.271339,82.4590553 C231.331106,74.7678626 229,61.0711324 229,61.0711324 C229,61.0711324 242.785934,59.8485006 252.727414,67.5409447 C262.667648,75.2333888 265,88.9288676 265,88.9288676 Z" id="Fill-23"></path>
                    <path d="M301.46126,38 C301.46126,38 288.067589,34.3111783 281.462251,23.8183398 C274.85566,13.3242782 277.539157,0 277.539157,0 C277.539157,0 290.931574,3.68882166 297.538166,14.1816602 C304.143504,24.6757218 301.46126,38 301.46126,38 Z" id="Fill-24"></path>
                    <path d="M275.998765,113 C271.581905,113 268,109.419054 268,104.999382 C268,100.582182 271.581905,97 275.998765,97 C280.418095,97 284,100.582182 284,104.999382 C284,109.419054 280.418095,113 275.998765,113 Z" id="Fill-25"></path>
                    <path d="M217.000618,42 C212.582182,42 209,38.4190535 209,34.0006176 C209,29.5809465 212.582182,26 217.000618,26 C221.419054,26 225,29.5809465 225,34.0006176 C225,38.4190535 221.419054,42 217.000618,42 Z" id="Fill-26"></path>
                    <path d="M99,321.343958 C99,321.343958 94.5314727,332.220311 84.8669834,336.724412 C75.2012715,341.228513 64,337.656042 64,337.656042 C64,337.656042 68.4685273,326.779689 78.1330166,322.275588 C87.7987285,317.771487 99,321.343958 99,321.343958 Z" id="Fill-27"></path>
                    <path d="M125.000092,334 C125.000092,334 125.121322,347.970532 116.561021,357.359383 C108.00072,366.747016 93.9999105,368 93.9999105,368 C93.9999105,368 93.8799021,354.029468 102.440203,344.640617 C111.000504,335.252984 125.000092,334 125.000092,334 Z" id="Fill-28"></path>
                    <path d="M118.007756,318.883565 C115.862829,315.02213 117.254101,310.152272 121.115686,308.00743 C124.978467,305.862587 129.847318,307.255 131.992244,311.116435 C134.137171,314.97787 132.745899,319.847728 128.884314,321.99257 C125.021533,324.137413 120.152682,322.745 118.007756,318.883565 Z" id="Fill-29"></path>
                    <path d="M127.007414,249.884314 C124.862604,246.021533 126.254996,241.152682 130.116371,239.007756 C133.977746,236.862829 138.847528,238.254101 140.992338,242.115686 C143.137147,245.978467 141.745952,250.847318 137.883381,252.992244 C134.022006,255.137171 129.152224,253.745899 127.007414,249.884314 Z" id="Fill-30"></path>
                    <path d="M100.007487,282.883331 C97.8625222,279.021677 99.2550146,274.152738 103.116669,272.007774 C106.978323,269.862809 111.847262,271.254105 113.992226,275.115759 C116.137191,278.97861 114.745895,283.847548 110.884241,285.992513 C107.022586,288.137478 102.152452,286.744985 100.007487,282.883331 Z" id="Fill-31"></path>
                    <path d="M22.0077218,287.883234 C19.8627852,284.021722 21.2540631,279.151766 25.1168631,277.00688 C28.9784669,274.863191 33.8473415,276.254436 35.9922782,280.117144 C38.1372148,283.978657 36.7459369,288.847416 32.8831369,290.992302 C29.0215331,293.137188 24.1526585,291.745943 22.0077218,287.883234 Z" id="Fill-32"></path>
                    <path d="M5.00742963,213.883565 C2.86258681,210.02213 4.25500011,205.152272 8.11643491,203.00743 C11.979066,200.862587 16.8477276,202.255 18.9925704,206.116435 C21.1374132,209.97787 19.7449999,214.847728 15.8835651,216.99257 C12.0221303,219.137413 7.15227244,217.745 5.00742963,213.883565 Z" id="Fill-33"></path>
                    <path d="M181.007758,394.882461 C178.862827,391.022273 180.254101,386.152479 184.115696,384.007665 C187.978486,381.86285 192.847349,383.254049 194.992281,387.116629 C197.137212,390.976817 195.745937,395.847807 191.883147,397.992622 C188.021552,400.137437 183.15269,398.745042 181.007758,394.882461 Z" id="Fill-34"></path>
                    <path d="M203.333316,329 C203.333316,329 216.155991,322.924635 220.942181,311.05073 C225.728371,299.176824 220.665745,286 220.665745,286 C220.665745,286 207.84431,292.075365 203.05812,303.94927 C198.27193,315.823176 203.333316,329 203.333316,329 Z" id="Fill-35"></path>
                    <path d="M152.334255,388 C152.334255,388 165.15693,381.924635 169.94188,370.05073 C174.72807,358.175594 169.666684,345 169.666684,345 C169.666684,345 156.844009,351.075365 152.057819,362.94927 C147.271629,374.824406 152.334255,388 152.334255,388 Z" id="Fill-36"></path>
                    <path d="M201.728727,378 C201.728727,378 217.395465,373.383416 225.00185,360.681105 C232.607015,347.977574 229.271823,332 229.271823,332 C229.271823,332 213.603865,336.616584 205.99748,349.318895 C198.392315,362.021207 201.728727,378 201.728727,378 Z" id="Fill-37"></path>
                    <path d="M211,403.839256 C211,403.839256 225.163184,405.501514 235.657059,398.13524 C246.150934,390.767754 249,377.160744 249,377.160744 C249,377.160744 234.836816,375.498486 224.342941,382.86476 C213.849066,390.232246 211,403.839256 211,403.839256 Z" id="Fill-38"></path>
                    <path d="M294.236531,315 C294.236531,315 301.781277,309.65527 303.582705,301.370817 C305.385326,293.086365 300.764169,285 300.764169,285 C300.764169,285 293.220616,290.34473 291.416801,298.629183 C289.615373,306.91242 294.236531,315 294.236531,315 Z" id="Fill-39"></path>
                    <path d="M138,277.839015 C138,277.839015 152.163184,279.502471 162.657059,272.135042 C173.150934,264.767613 176,251.160707 176,251.160707 C176,251.160707 161.836816,249.498461 151.342941,256.865891 C140.849066,264.23332 138,277.839015 138,277.839015 Z" id="Fill-40"></path>
                    <path d="M67,270.815515 C67,270.815515 82.6551521,272.723707 94.2531631,264.266183 C105.849938,255.80741 109,240.184485 109,240.184485 C109,240.184485 93.3460837,238.276293 81.7480727,246.733817 C70.1500618,255.19259 67,270.815515 67,270.815515 Z" id="Fill-41"></path>
                    <path d="M0,252.815261 C0,252.815261 15.6543769,254.724748 27.2527291,246.26577 C38.8510814,237.808042 42,222.184739 42,222.184739 C42,222.184739 26.3456231,220.275252 14.7472709,228.73423 C3.14891864,237.191958 0,252.815261 0,252.815261 Z" id="Fill-42"></path>
                    <path d="M133.010228,190.599195 C133.231568,186.186755 136.988364,182.788888 141.400805,183.010228 C145.813245,183.231568 149.211112,186.987168 148.989772,191.400805 C148.768432,195.813245 145.012832,199.211112 140.600392,198.989772 C136.186755,198.768432 132.788888,195.011636 133.010228,190.599195 Z" id="Fill-43"></path>
                    <path d="M63.0102282,176.599195 C63.2315695,172.186755 66.9871943,168.788888 71.3996646,169.010228 C75.8121348,169.231568 79.2100241,172.988364 78.9898792,177.400805 C78.7685378,181.813245 75.0117166,185.211112 70.5992463,184.989772 C66.186776,184.768432 62.7888868,181.011636 63.0102282,176.599195 Z" id="Fill-44"></path>
                    <path d="M77,195.017497 C77,195.017497 95.5939071,201.808722 112.16176,194.895521 C128.730844,187.983552 137,169.982862 137,169.982862 C137,169.982862 118.406093,163.191637 101.837009,170.103606 C85.2691558,177.016807 77,195.017497 77,195.017497 Z" id="Fill-45"></path>
                    <path d="M52,126.192558 C52,126.192558 55.1932132,141.356371 66.7911114,149.534853 C78.3890096,157.712121 94,155.807692 94,155.807692 C94,155.807692 90.8067868,140.642666 79.2088886,132.465398 C67.6097575,124.286916 52,126.192558 52,126.192558 Z" id="Fill-46"></path>
                    <path d="M43,309.049736 C43,309.049736 56.7965378,312.460496 68.1176649,306.358385 C79.4400327,300.256274 84,286.950264 84,286.950264 C84,286.950264 70.2034622,283.539504 58.8810943,289.641615 C47.5599673,295.743726 43,309.049736 43,309.049736 Z" id="Fill-47"></path>
                    <path d="M390.68495,206.607141 C388.258748,202.915321 383.298674,201.888885 379.606732,204.315007 C375.914791,206.741128 374.889517,211.701039 377.314522,215.392859 C379.74192,219.084679 384.700798,220.111115 388.39274,217.684993 C392.084681,215.258872 393.111151,210.298961 390.68495,206.607141 Z" id="Fill-48"></path>
                    <path d="M405.685478,142.607329 C403.25808,138.915317 398.299202,137.888828 394.60726,140.315075 C390.915319,142.741323 389.888849,147.701491 392.31505,151.393503 C394.741252,155.085515 399.701326,156.110808 403.393268,153.68456 C407.085209,151.259509 408.110483,146.29934 405.685478,142.607329 Z" id="Fill-49"></path>
                    <path d="M509.684938,96.6072097 C507.258716,92.9153198 502.299794,91.8888643 498.60782,94.3150318 C494.915846,96.7411992 493.88817,101.701204 496.31559,105.393094 C498.741812,109.084984 503.700734,110.11144 507.392708,107.684076 C511.084682,105.257908 512.111161,100.2991 509.684938,96.6072097 Z" id="Fill-50"></path>
                    <path d="M450.68495,65.6069058 C448.258748,61.9150159 443.298674,60.8885605 439.606732,63.3159243 C435.914791,65.7408954 434.889517,70.7009004 437.314522,74.3927903 C439.74192,78.0846802 444.700798,79.1111357 448.39274,76.6849682 C452.084681,74.2588008 453.111151,69.2987958 450.68495,65.6069058 Z" id="Fill-51"></path>
                    <path d="M394.68495,33.6072097 C392.258748,29.9153198 387.298674,28.8888643 383.606732,31.3150318 C379.914791,33.7411992 378.889517,38.7012042 381.314522,42.3930942 C383.740724,46.0849841 388.700798,47.1114395 392.39274,44.6840757 C396.084681,42.2591046 397.111151,37.2990996 394.68495,33.6072097 Z" id="Fill-52"></path>
                    <path d="M330.684669,7.60673233 C328.258514,3.91479074 323.298535,2.88951726 319.606663,5.31452232 C315.914792,7.74072373 314.889538,12.7007982 317.314497,16.3927398 C319.741849,20.0846814 324.700632,21.1111512 328.392503,18.6849498 C332.08557,16.2587484 333.110824,11.2986739 330.684669,7.60673233 Z" id="Fill-53"></path>
                    <path d="M443.684644,169.607141 C441.258443,165.915321 436.298369,164.888885 432.606428,167.315007 C428.914487,169.741128 427.889214,174.701039 430.315415,178.392859 C432.740419,182.084679 437.700493,183.111115 441.392435,180.684993 C445.085572,178.258872 446.110845,173.298961 443.684644,169.607141 Z" id="Fill-54"></path>
                    <path d="M394,229.009763 C394,229.009763 390.017199,239.18648 380.905314,243.59984 C371.792187,248.011996 361,244.990746 361,244.990746 C361,244.990746 364.982801,234.814029 374.095928,230.400669 C383.209055,225.987309 394,229.009763 394,229.009763 Z" id="Fill-55"></path>
                    <path d="M419,169.457826 C419,169.457826 413.447895,184.157538 400.745798,190.531521 C388.043701,196.906736 373,192.542412 373,192.542412 C373,192.542412 378.552105,177.8427 391.254202,171.467485 C403.956299,165.093502 419,169.457826 419,169.457826 Z" id="Fill-56"></path>
                    <path d="M533.781352,198.850536 C534.802916,194.552551 532.147328,190.240212 527.849342,189.218648 C523.552553,188.197084 519.240212,190.852672 518.218648,195.150657 C517.197084,199.447445 519.852672,203.759784 524.150658,204.781348 C528.447447,205.802912 532.759788,203.147325 533.781352,198.850536 Z" id="Fill-57"></path>
                    <path d="M485.781362,198.850536 C486.802878,194.552551 484.147415,190.240212 479.849631,189.218648 C475.551848,188.197084 471.240906,190.852672 470.218194,195.150657 C469.197874,199.447445 471.853337,203.759784 476.149925,204.781348 C480.447709,205.802912 484.759846,203.147325 485.781362,198.850536 Z" id="Fill-58"></path>
                    <path d="M521.781338,172.850536 C522.80295,168.552551 520.147238,164.240212 515.850248,163.218648 C511.553259,162.197084 507.239522,164.852672 506.219106,169.150657 C505.196298,173.447445 507.85201,177.759784 512.150196,178.781348 C516.448382,179.802912 520.759726,177.147325 521.781338,172.850536 Z" id="Fill-59"></path>
                    <path d="M504.732347,186 C504.732347,186 512.094109,195.86415 510.860672,206.910413 C509.627235,217.955439 500.267406,226 500.267406,226 C500.267406,226 492.906897,216.134612 494.139081,205.089587 C495.372517,194.043324 504.732347,186 504.732347,186 Z" id="Fill-60"></path>
                    <path d="M580,173.986258 C580,173.986258 569.638045,185.468669 555.555033,186.857632 C541.470798,188.246594 529,179.014928 529,179.014928 C529,179.014928 539.360732,167.531314 553.444967,166.142351 C567.529202,164.753389 580,173.986258 580,173.986258 Z" id="Fill-61"></path>
                    <path d="M552.781352,239.850536 C553.802916,235.552551 551.147328,231.241408 546.849343,230.218648 C542.552555,229.197084 538.240216,231.852672 537.218652,236.150657 C536.197088,240.447445 538.852675,244.759784 543.149464,245.781348 C547.447449,246.802912 551.759788,244.147325 552.781352,239.850536 Z" id="Fill-62"></path>
                    <path d="M584.781352,293.849841 C585.802916,289.55216 583.147328,285.240124 578.849343,284.218633 C574.552555,283.197141 570.240216,285.852541 569.218652,290.150223 C568.197088,294.447905 570.852675,298.758744 575.149464,299.781432 C579.447449,300.802923 583.759788,298.146327 584.781352,293.849841 Z" id="Fill-63"></path>
                    <path d="M542.781353,146.850536 C543.802913,142.552551 541.147336,138.240212 536.849368,137.218648 C532.552597,136.197084 528.240275,138.852672 527.218715,143.150657 C526.197155,147.447445 528.851536,151.759784 533.149504,152.781348 C537.447471,153.802912 541.758597,151.147325 542.781353,146.850536 Z" id="Fill-64"></path>
                    <path d="M561,254.767208 C561,254.767208 571.850977,248.910878 582.621318,251.80177 C593.39166,254.692662 600,265.232792 600,265.232792 C600,265.232792 589.149023,271.089122 578.378682,268.19823 C567.610821,265.308602 561,254.767208 561,254.767208 Z" id="Fill-65"></path>
                    <path d="M599,214.986258 C599,214.986258 588.638045,226.469873 574.555033,227.857632 C560.470798,229.246594 548,220.014928 548,220.014928 C548,220.014928 558.360732,208.531314 572.444967,207.142351 C586.529202,205.753389 599,214.986258 599,214.986258 Z" id="Fill-66"></path>
                    <path d="M482,218.98589 C482,218.98589 471.638045,230.468975 457.555033,231.857874 C443.472022,233.245568 431,224.014328 431,224.014328 C431,224.014328 441.360732,212.531243 455.444967,211.142345 C469.529202,209.753446 482,218.98589 482,218.98589 Z" id="Fill-67"></path>
                    <path d="M462,120.457813 C462,120.457813 456.447895,135.15739 443.745798,141.532547 C431.043701,147.906471 416,143.542187 416,143.542187 C416,143.542187 421.552105,128.84261 434.254202,122.467453 C446.956299,116.093529 462,120.457813 462,120.457813 Z" id="Fill-68"></path>
                    <path d="M426,73 C426,73 425.578616,88.7123119 415.637894,98.9293182 C405.697173,109.146324 390,110 390,110 C390,110 390.420152,94.28892 400.360873,84.0719137 C410.301595,73.8549074 426,73 426,73 Z" id="Fill-69"></path>
                    <path d="M526,123.648658 C526,123.648658 516.898372,145.925726 497.015864,155.232579 C477.134593,164.539432 454,157.351342 454,157.351342 C454,157.351342 463.101628,135.073047 482.982899,125.767421 C502.865407,116.460568 526,123.648658 526,123.648658 Z" id="Fill-70"></path>
                    <path d="M500,70.4236971 C500,70.4236971 495.527149,88.6242751 481.167856,98.0553284 C466.809805,107.485161 448,104.576633 448,104.576633 C448,104.576633 452.474092,86.3760546 466.832144,76.9450013 C481.191437,67.5139481 500,70.4236971 500,70.4236971 Z" id="Fill-71"></path>
                    <path d="M153.278102,136.916605 C152.127383,141.182269 154.652505,145.572339 158.916864,146.721891 C163.181222,147.87264 167.571179,145.347453 168.721898,141.082984 C169.872617,136.818516 167.347495,132.428447 163.083136,131.277698 C158.817581,130.128146 154.428821,132.652137 153.278102,136.916605 Z" id="Fill-72"></path>
                    <path d="M209.278096,98.917768 C208.127377,103.18192 210.6525,107.571665 214.918057,108.722328 C219.182417,109.871795 223.571179,107.347991 224.721898,103.082643 C225.872618,98.8184904 223.347494,94.4287461 219.083134,93.2780828 C214.818774,92.1274196 210.428816,94.6524197 209.278096,98.917768 Z" id="Fill-73"></path>
                    <path d="M316.278102,43.9175093 C315.127382,48.1817709 317.652506,52.5716279 321.916866,53.7223206 C326.181226,54.8718172 330.571184,52.3479485 331.721904,48.0824907 C332.872623,43.8182291 330.3475,39.4283721 326.081943,38.2776794 C321.817583,37.1281828 317.428821,39.6520515 316.278102,43.9175093 Z" id="Fill-74"></path>
                    <path d="M346.278097,85.9173574 C345.127398,90.1815096 347.652475,94.5712539 351.916757,95.7219172 C356.182234,96.8725804 360.572112,94.3475803 361.72281,90.082232 C362.871116,85.8180798 360.347235,81.4283355 356.082954,80.2776723 C351.817476,79.1282051 347.427598,81.6520091 346.278097,85.9173574 Z" id="Fill-75"></path>
                    <path d="M160.277698,38.9170156 C159.128146,43.1814838 161.652137,47.5715534 165.916605,48.7223019 C170.182269,49.8718542 174.572339,47.3478632 175.721891,43.083395 C176.87264,38.8177306 174.347453,34.427661 170.082984,33.2781087 C165.818516,32.1273602 161.428447,34.6525474 160.277698,38.9170156 Z" id="Fill-76"></path>
                    <path d="M94.2781088,81.9177682 C93.1273599,86.1822164 95.6525479,90.5722654 99.9170175,91.7218123 C104.181487,92.8725554 108.571558,90.3485762 109.722307,86.0829319 C110.87186,81.8184837 108.347868,77.4284346 104.082202,76.2776915 C99.8177325,75.1281446 95.4276614,77.6521238 94.2781088,81.9177682 Z" id="Fill-77"></path>
                    <path d="M99,110.533574 C99,110.533574 113.717301,105.024884 126.973363,110.253101 C140.226956,115.481318 147,129.467343 147,129.467343 C147,129.467343 132.282699,134.974819 119.027871,129.746603 C105.773044,124.518386 99,110.533574 99,110.533574 Z" id="Fill-78"></path>
                    <path d="M126.000531,56 C126.000531,56 149.591446,58.2321914 163.95049,74.2482574 C178.309535,90.2643234 177.999469,114 177.999469,114 C177.999469,114 154.408554,111.767809 140.04951,95.7517426 C125.690465,79.7344441 126.000531,56 126.000531,56 Z" id="Fill-79"></path>
                    <path d="M184.796166,323.485574 C181.74998,320.285078 176.686563,320.158255 173.486034,323.204409 C170.284308,326.250564 170.15868,331.313929 173.204866,334.514426 C176.249855,337.714922 181.313272,337.841745 184.513802,334.795591 C187.715528,331.749436 187.841156,326.686071 184.796166,323.485574 Z" id="Fill-80"></path>
                    <path d="M372.007776,391.883073 C369.862806,388.022606 371.254106,383.152459 375.115769,381.007489 C378.977433,378.862519 383.847579,380.255015 385.992549,384.116679 C388.137519,387.978342 386.745023,392.847293 382.882163,394.992263 C379.021696,397.137232 374.15155,395.745933 372.007776,391.883073 Z" id="Fill-81"></path>
                    <path d="M390,305.276216 C390,305.276216 406.174116,314.876479 422.741344,311.134131 C439.31103,307.39053 450,291.72305 450,291.72305 C450,291.72305 433.825884,282.122786 417.257427,285.866388 C400.68897,289.608736 390,305.276216 390,305.276216 Z" id="Fill-82"></path>
                    <path d="M345.333722,386 C345.333722,386 358.156491,379.924635 362.942717,368.05073 C367.727702,356.176824 362.666278,343 362.666278,343 C362.666278,343 349.844748,349.075365 345.057283,360.94927 C340.272298,372.823176 345.333722,386 345.333722,386 Z" id="Fill-83"></path>
                    <path d="M382,355.839292 C382,355.839292 396.163964,357.501552 406.656251,350.134057 C417.149782,342.767773 420,329.160745 420,329.160745 C420,329.160745 405.836036,327.498484 395.342504,334.864768 C384.850218,342.232263 382,355.839292 382,355.839292 Z" id="Fill-84"></path>
                    <path d="M405.023432,395 C405.023432,395 418.801391,393.02589 426.797462,383.084881 C434.79232,373.143873 433.976568,359 433.976568,359 C433.976568,359 420.198609,360.972874 412.202538,370.913882 C404.20768,380.856127 405.023432,395 405.023432,395 Z" id="Fill-85"></path>
                    <path d="M377.796921,320.485255 C374.750539,317.284574 369.685599,317.15894 366.484864,320.204074 C363.285325,323.249209 363.158492,328.314063 366.203678,331.514745 C369.25006,334.715426 374.313803,334.84106 377.514538,331.795926 C380.715274,328.750791 380.84091,323.687134 377.796921,320.485255 Z" id="Fill-86"></path>
                    <path d="M454.054184,367.075815 C454.565042,362.687582 458.535856,359.54356 462.92421,360.054403 C467.312565,360.565247 470.455478,364.535952 469.945816,368.924185 C469.436155,373.312418 465.464144,376.45644 461.07579,375.945597 C456.687435,375.434753 453.544522,371.464048 454.054184,367.075815 Z" id="Fill-87"></path>
                    <path d="M510,274.049203 C510,274.049203 515.337184,290.042934 528.869258,297.472468 C542.39886,304.900784 559,300.950797 559,300.950797 C559,300.950797 553.66158,284.955848 540.130742,277.527532 C526.599904,270.099216 510,274.049203 510,274.049203 Z" id="Fill-88"></path>
                    <path d="M431,338.557112 C431,338.557112 444.861261,341.068162 455.63132,334.132054 C466.400151,327.197186 470,313.442888 470,313.442888 C470,313.442888 456.138739,310.931838 445.369908,317.867946 C434.599849,324.802814 431,338.557112 431,338.557112 Z" id="Fill-89"></path>
                    <path d="M483,299 C483,299 483.436844,313.074939 492.272003,322.186732 C501.108377,331.299754 515,332 515,332 C515,332 514.56437,317.92629 505.727997,308.813268 C496.89041,299.700246 483,299 483,299 Z" id="Fill-90"></path>
                    <path d="M472,335.148571 C472,335.148571 474.716098,349.194897 484.932181,356.845285 C495.150695,364.495672 509,362.851395 509,362.851395 C509,362.851395 506.283902,348.805069 496.066603,341.155931 C485.848088,333.504294 472,335.148571 472,335.148571 Z" id="Fill-91"></path>
                    <path d="M477.923268,280.902404 C477.31673,276.526424 473.277927,273.471133 468.901759,274.076449 C464.526788,274.684158 461.47017,278.722788 462.076708,283.098768 C462.684443,287.474748 466.723246,290.528843 471.098217,289.923527 C475.474385,289.315818 478.529806,285.277188 477.923268,280.902404 Z" id="Fill-92"></path>
                    <path d="M550.923268,323.901614 C550.316731,319.526573 546.277934,316.471103 541.901773,317.076454 C537.525612,317.684198 534.470195,321.723066 535.076732,326.098107 C535.683269,330.474344 539.722066,333.529814 544.098227,332.923267 C548.474388,332.316719 551.529805,328.277851 550.923268,323.901614 Z" id="Fill-93"></path>
                </g>
            </g>
        </g>
    </g>
</svg>